<mxfile host="app.diagrams.net" modified="2024-02-22T12:42:09.427Z" agent="Mozilla/5.0 (Macintosh; Intel Mac OS X 10_15_7) AppleWebKit/537.36 (KHTML, like Gecko) Chrome/121.0.0.0 Safari/537.36" etag="4WP7dRsIyd08QlQOaxn0" version="23.1.5" type="github">
  <diagram name="Page-1" id="4UayCVKN-NOc7bqSBUPx">
    <mxGraphModel dx="4630" dy="3373" grid="1" gridSize="10" guides="1" tooltips="1" connect="1" arrows="1" fold="1" page="1" pageScale="1" pageWidth="850" pageHeight="1100" math="0" shadow="0">
      <root>
        <mxCell id="0" />
        <mxCell id="1" parent="0" />
        <mxCell id="rBt9rOygKAjZPzpCTS1T-1" value="" style="rounded=1;whiteSpace=wrap;html=1;fillColor=#f5f5f5;fontColor=#333333;strokeColor=#666666;" vertex="1" parent="1">
          <mxGeometry x="585" y="980" width="945" height="330" as="geometry" />
        </mxCell>
        <mxCell id="8aHG0Ycmiw9dC2gy8iPI-1" value="&lt;font color=&quot;#000000&quot;&gt;&lt;b&gt;AWS Cloud&lt;/b&gt;&lt;/font&gt;" style="sketch=0;outlineConnect=0;gradientColor=none;html=1;whiteSpace=wrap;fontSize=12;fontStyle=0;shape=mxgraph.aws4.group;grIcon=mxgraph.aws4.group_aws_cloud;strokeColor=#AAB7B8;fillColor=none;verticalAlign=top;align=left;spacingLeft=30;fontColor=#AAB7B8;dashed=0;" parent="1" vertex="1">
          <mxGeometry x="120" y="-340" width="730" height="480" as="geometry" />
        </mxCell>
        <mxCell id="8aHG0Ycmiw9dC2gy8iPI-2" value="" style="rounded=1;whiteSpace=wrap;html=1;hachureGap=4;fontFamily=Architects Daughter;fontSource=https%3A%2F%2Ffonts.googleapis.com%2Fcss%3Ffamily%3DArchitects%2BDaughter;fontSize=20;arcSize=2;fillColor=#5E5E5E;strokeColor=#666666;fontColor=#333333;dashed=1;fillStyle=cross-hatch;" parent="1" vertex="1">
          <mxGeometry x="100" y="-360" width="790" height="510" as="geometry" />
        </mxCell>
        <mxCell id="8aHG0Ycmiw9dC2gy8iPI-3" value="" style="verticalLabelPosition=bottom;verticalAlign=top;html=1;shape=mxgraph.basic.rect;fillColor2=none;strokeWidth=1;size=20;indent=5;hachureGap=4;fontFamily=Architects Daughter;fontSource=https%3A%2F%2Ffonts.googleapis.com%2Fcss%3Ffamily%3DArchitects%2BDaughter;fontSize=20;rounded=1;fillColor=#dae8fc;strokeColor=#6c8ebf;" parent="1" vertex="1">
          <mxGeometry x="-1330" y="187.42" width="1000" height="500" as="geometry" />
        </mxCell>
        <mxCell id="8aHG0Ycmiw9dC2gy8iPI-4" value="NodeJS&lt;br&gt;" style="whiteSpace=wrap;html=1;fontSize=20;fontFamily=Architects Daughter;verticalAlign=top;hachureGap=4;fontSource=https%3A%2F%2Ffonts.googleapis.com%2Fcss%3Ffamily%3DArchitects%2BDaughter;fillColor=#e1d5e7;strokeColor=#9673a6;fillStyle=auto;rounded=1;glass=0;" parent="1" vertex="1">
          <mxGeometry x="530" y="367.5" width="120" height="60" as="geometry" />
        </mxCell>
        <mxCell id="8aHG0Ycmiw9dC2gy8iPI-5" style="edgeStyle=orthogonalEdgeStyle;rounded=1;hachureGap=4;orthogonalLoop=1;jettySize=auto;html=1;exitX=1;exitY=0.5;exitDx=0;exitDy=0;exitPerimeter=0;entryX=0;entryY=0.5;entryDx=0;entryDy=0;fontFamily=Architects Daughter;fontSource=https%3A%2F%2Ffonts.googleapis.com%2Fcss%3Ffamily%3DArchitects%2BDaughter;fontSize=16;" parent="1" source="8aHG0Ycmiw9dC2gy8iPI-7" target="8aHG0Ycmiw9dC2gy8iPI-4" edge="1">
          <mxGeometry relative="1" as="geometry" />
        </mxCell>
        <mxCell id="8aHG0Ycmiw9dC2gy8iPI-6" value="" style="edgeStyle=orthogonalEdgeStyle;rounded=0;orthogonalLoop=1;jettySize=auto;html=1;" parent="1" source="8aHG0Ycmiw9dC2gy8iPI-7" target="8aHG0Ycmiw9dC2gy8iPI-9" edge="1">
          <mxGeometry relative="1" as="geometry" />
        </mxCell>
        <mxCell id="8aHG0Ycmiw9dC2gy8iPI-7" value="" style="verticalLabelPosition=bottom;html=1;verticalAlign=top;align=center;points=[[0,0.5,0],[0.125,0.25,0],[0.25,0,0],[0.5,0,0],[0.75,0,0],[0.875,0.25,0],[1,0.5,0],[0.875,0.75,0],[0.75,1,0],[0.5,1,0],[0.125,0.75,0]];pointerEvents=1;shape=mxgraph.cisco_safe.compositeIcon;bgIcon=mxgraph.cisco_safe.design.blank_device;resIcon=mxgraph.cisco_safe.design.wide_area_application_engine_2;hachureGap=4;fontFamily=Architects Daughter;fontSource=https%3A%2F%2Ffonts.googleapis.com%2Fcss%3Ffamily%3DArchitects%2BDaughter;fontSize=20;shadow=0;rounded=1;" parent="1" vertex="1">
          <mxGeometry x="386" y="364.26" width="77.78" height="70" as="geometry" />
        </mxCell>
        <mxCell id="8aHG0Ycmiw9dC2gy8iPI-8" value="" style="edgeStyle=orthogonalEdgeStyle;rounded=1;hachureGap=4;orthogonalLoop=1;jettySize=auto;html=1;fontFamily=Architects Daughter;fontSource=https%3A%2F%2Ffonts.googleapis.com%2Fcss%3Ffamily%3DArchitects%2BDaughter;fontSize=16;entryX=0.413;entryY=1.011;entryDx=0;entryDy=0;entryPerimeter=0;" parent="1" source="8aHG0Ycmiw9dC2gy8iPI-9" target="8aHG0Ycmiw9dC2gy8iPI-2" edge="1">
          <mxGeometry relative="1" as="geometry">
            <Array as="points">
              <mxPoint x="440" y="183" />
              <mxPoint x="426" y="183" />
            </Array>
          </mxGeometry>
        </mxCell>
        <mxCell id="8aHG0Ycmiw9dC2gy8iPI-9" value="&lt;b&gt;Cloud Services&lt;/b&gt;" style="rounded=1;whiteSpace=wrap;html=1;hachureGap=4;fontFamily=Architects Daughter;fontSource=https%3A%2F%2Ffonts.googleapis.com%2Fcss%3Ffamily%3DArchitects%2BDaughter;fontSize=20;" parent="1" vertex="1">
          <mxGeometry x="265" y="215" width="320" height="78" as="geometry" />
        </mxCell>
        <mxCell id="8aHG0Ycmiw9dC2gy8iPI-205" style="edgeStyle=orthogonalEdgeStyle;rounded=1;orthogonalLoop=1;jettySize=auto;html=1;entryX=0.934;entryY=0.013;entryDx=0;entryDy=0;entryPerimeter=0;curved=0;" parent="1" source="8aHG0Ycmiw9dC2gy8iPI-10" target="8aHG0Ycmiw9dC2gy8iPI-165" edge="1">
          <mxGeometry relative="1" as="geometry">
            <mxPoint x="240" y="1240" as="targetPoint" />
          </mxGeometry>
        </mxCell>
        <mxCell id="8aHG0Ycmiw9dC2gy8iPI-10" value="Authentication" style="rhombus;whiteSpace=wrap;html=1;hachureGap=4;fontFamily=Architects Daughter;fontSource=https%3A%2F%2Ffonts.googleapis.com%2Fcss%3Ffamily%3DArchitects%2BDaughter;fontSize=20;rounded=1;" parent="1" vertex="1">
          <mxGeometry x="480" y="599" width="200" height="121" as="geometry" />
        </mxCell>
        <mxCell id="8aHG0Ycmiw9dC2gy8iPI-11" style="edgeStyle=orthogonalEdgeStyle;rounded=1;hachureGap=4;orthogonalLoop=1;jettySize=auto;html=1;exitX=1;exitY=0.5;exitDx=0;exitDy=0;entryX=0.072;entryY=1.006;entryDx=0;entryDy=0;fontFamily=Architects Daughter;fontSource=https%3A%2F%2Ffonts.googleapis.com%2Fcss%3Ffamily%3DArchitects%2BDaughter;fontSize=16;startArrow=classic;startFill=1;entryPerimeter=0;dashed=1;" parent="1" source="8aHG0Ycmiw9dC2gy8iPI-10" target="8aHG0Ycmiw9dC2gy8iPI-109" edge="1">
          <mxGeometry relative="1" as="geometry">
            <mxPoint x="712.4799999999996" y="470.32000000000016" as="targetPoint" />
          </mxGeometry>
        </mxCell>
        <mxCell id="8aHG0Ycmiw9dC2gy8iPI-12" value="Payment Processor" style="whiteSpace=wrap;html=1;fontSize=20;fontFamily=Architects Daughter;verticalAlign=top;hachureGap=4;fontSource=https%3A%2F%2Ffonts.googleapis.com%2Fcss%3Ffamily%3DArchitects%2BDaughter;fillColor=#ffe6cc;strokeColor=#d79b00;fillStyle=hatch;rounded=1;" parent="1" vertex="1">
          <mxGeometry x="1260" y="170" width="164" height="66" as="geometry" />
        </mxCell>
        <mxCell id="8aHG0Ycmiw9dC2gy8iPI-13" value="" style="group;rounded=1;" parent="1" vertex="1" connectable="0">
          <mxGeometry x="960.8700000000001" y="540" width="729.1299999999999" height="267.37" as="geometry" />
        </mxCell>
        <mxCell id="8aHG0Ycmiw9dC2gy8iPI-14" value="" style="rounded=1;whiteSpace=wrap;html=1;hachureGap=4;fontFamily=Architects Daughter;fontSource=https%3A%2F%2Ffonts.googleapis.com%2Fcss%3Ffamily%3DArchitects%2BDaughter;fontSize=20;fillColor=#b1ddf0;strokeColor=#10739e;" parent="8aHG0Ycmiw9dC2gy8iPI-13" vertex="1">
          <mxGeometry y="28.870000000000005" width="685" height="238.5" as="geometry" />
        </mxCell>
        <mxCell id="8aHG0Ycmiw9dC2gy8iPI-15" style="edgeStyle=orthogonalEdgeStyle;rounded=1;hachureGap=4;orthogonalLoop=1;jettySize=auto;html=1;fontFamily=Architects Daughter;fontSource=https%3A%2F%2Ffonts.googleapis.com%2Fcss%3Ffamily%3DArchitects%2BDaughter;fontSize=16;" parent="8aHG0Ycmiw9dC2gy8iPI-13" target="8aHG0Ycmiw9dC2gy8iPI-18" edge="1">
          <mxGeometry relative="1" as="geometry">
            <mxPoint x="58.569999999999936" y="73" as="sourcePoint" />
            <Array as="points">
              <mxPoint x="236.56999999999994" y="76" />
              <mxPoint x="236.56999999999994" y="187" />
            </Array>
          </mxGeometry>
        </mxCell>
        <mxCell id="8aHG0Ycmiw9dC2gy8iPI-16" value="Visit cache" style="edgeLabel;html=1;align=center;verticalAlign=middle;resizable=0;points=[];fontSize=20;fontFamily=Architects Daughter;rounded=1;" parent="8aHG0Ycmiw9dC2gy8iPI-15" connectable="0" vertex="1">
          <mxGeometry x="0.3793" y="2" relative="1" as="geometry">
            <mxPoint x="-91" y="-30" as="offset" />
          </mxGeometry>
        </mxCell>
        <mxCell id="8aHG0Ycmiw9dC2gy8iPI-17" value="&lt;font color=&quot;#ffffff&quot;&gt;Query&lt;/font&gt;" style="edgeLabel;html=1;align=center;verticalAlign=middle;resizable=0;points=[];fontSize=20;fontFamily=Architects Daughter;fontColor=default;labelBackgroundColor=#FF050D;rounded=1;" parent="8aHG0Ycmiw9dC2gy8iPI-15" connectable="0" vertex="1">
          <mxGeometry x="-0.8066" relative="1" as="geometry">
            <mxPoint x="-43" y="-1" as="offset" />
          </mxGeometry>
        </mxCell>
        <mxCell id="8aHG0Ycmiw9dC2gy8iPI-18" value="&lt;font style=&quot;font-size: 18px;&quot;&gt;&lt;b&gt;Redis Cache&lt;/b&gt;&lt;/font&gt;" style="image;aspect=fixed;html=1;points=[];align=center;fontSize=12;image=img/lib/mscae/Cache_Redis_Product.svg;hachureGap=4;fontFamily=Architects Daughter;fontSource=https%3A%2F%2Ffonts.googleapis.com%2Fcss%3Ffamily%3DArchitects%2BDaughter;rounded=1;" parent="8aHG0Ycmiw9dC2gy8iPI-13" vertex="1">
          <mxGeometry x="270" y="159.37" width="65.47" height="55" as="geometry" />
        </mxCell>
        <mxCell id="8aHG0Ycmiw9dC2gy8iPI-19" value="Database + Caching + Queue flow" style="text;html=1;strokeColor=#6c8ebf;fillColor=#dae8fc;align=center;verticalAlign=middle;whiteSpace=wrap;rounded=1;fontSize=20;fontFamily=Architects Daughter;fontStyle=1;" parent="8aHG0Ycmiw9dC2gy8iPI-13" vertex="1">
          <mxGeometry x="169" width="355" height="20" as="geometry" />
        </mxCell>
        <mxCell id="8aHG0Ycmiw9dC2gy8iPI-20" style="edgeStyle=orthogonalEdgeStyle;rounded=1;hachureGap=4;orthogonalLoop=1;jettySize=auto;html=1;fontFamily=Architects Daughter;fontSource=https%3A%2F%2Ffonts.googleapis.com%2Fcss%3Ffamily%3DArchitects%2BDaughter;fontSize=16;" parent="8aHG0Ycmiw9dC2gy8iPI-13" target="8aHG0Ycmiw9dC2gy8iPI-18" edge="1">
          <mxGeometry relative="1" as="geometry">
            <mxPoint x="565.0000000000002" y="72.375" as="sourcePoint" />
          </mxGeometry>
        </mxCell>
        <mxCell id="8aHG0Ycmiw9dC2gy8iPI-21" value="Store data" style="edgeLabel;html=1;align=center;verticalAlign=middle;resizable=0;points=[];fontSize=20;fontFamily=Architects Daughter;rounded=1;" parent="8aHG0Ycmiw9dC2gy8iPI-20" connectable="0" vertex="1">
          <mxGeometry x="0.1804" relative="1" as="geometry">
            <mxPoint x="84" y="13" as="offset" />
          </mxGeometry>
        </mxCell>
        <mxCell id="8aHG0Ycmiw9dC2gy8iPI-22" value="" style="endArrow=none;html=1;rounded=1;hachureGap=4;fontFamily=Architects Daughter;fontSource=https%3A%2F%2Ffonts.googleapis.com%2Fcss%3Ffamily%3DArchitects%2BDaughter;fontSize=16;fillColor=#f8cecc;strokeColor=#b85450;" parent="8aHG0Ycmiw9dC2gy8iPI-13" edge="1">
          <mxGeometry width="50" height="50" relative="1" as="geometry">
            <mxPoint x="169" y="17" as="sourcePoint" />
            <mxPoint x="526" y="34.36576239476153" as="targetPoint" />
          </mxGeometry>
        </mxCell>
        <mxCell id="8aHG0Ycmiw9dC2gy8iPI-23" style="edgeStyle=orthogonalEdgeStyle;rounded=1;hachureGap=4;orthogonalLoop=1;jettySize=auto;html=1;fontFamily=Architects Daughter;fontSource=https%3A%2F%2Ffonts.googleapis.com%2Fcss%3Ffamily%3DArchitects%2BDaughter;fontSize=16;" parent="8aHG0Ycmiw9dC2gy8iPI-13" source="8aHG0Ycmiw9dC2gy8iPI-18" edge="1">
          <mxGeometry relative="1" as="geometry">
            <mxPoint x="588.9449999999999" y="104.36999999999989" as="targetPoint" />
          </mxGeometry>
        </mxCell>
        <mxCell id="8aHG0Ycmiw9dC2gy8iPI-24" value="Fetch data" style="edgeLabel;html=1;align=center;verticalAlign=middle;resizable=0;points=[];fontSize=20;fontFamily=Architects Daughter;rounded=1;" parent="8aHG0Ycmiw9dC2gy8iPI-23" connectable="0" vertex="1">
          <mxGeometry x="-0.2228" y="1" relative="1" as="geometry">
            <mxPoint x="-13" y="-12" as="offset" />
          </mxGeometry>
        </mxCell>
        <mxCell id="8aHG0Ycmiw9dC2gy8iPI-25" value="" style="shape=image;verticalLabelPosition=bottom;labelBackgroundColor=default;verticalAlign=top;aspect=fixed;imageAspect=0;image=data:image/png,iVBORw0KGgoAAAANSUhEUgAAAUwAAACACAYAAABgM1AkAAAMPWlDQ1BJQ0MgUHJvZmlsZQAASImVVwdYU8kWnluSkJDQAqFICb0JAtKREkILICBVsBGSAKHEGAgidlRUcO0iCjZ0VUTRtQCyqIjYXRR7XyworKyLBRsqb1JA133leyff3Plz5sx/yp259w4A6i1csTgH1QAgV5QviQ0NZI5PTmGSugECf1RgBpy5vDwxKyYmEkAZ6v8u725CWyjXHGRc/xz/r6LJF+TxAEBiIE7j5/FyIT4MAF7FE0vyASDK9ObT88UyDBvQlsAAIV4iwxkKXCXDaQp8QG4TH8uGuA0AFSqXK8kAQO0K1DMLeBmQQ60PYicRXygCQJ0JsV9u7lQ+xKkQ20AbMcQyfs+073gy/saZNszJ5WYMY0UuclEJEuaJc7gz/s9y/G/JzZEO+bCCjZopCYuV5Qzrdjt7aoQMUyHuFaVFRUOsBfEHIV9uDzFKyZSGJSjsUUNeHhvWDDAgduJzgyIgNoQ4RJQTFanUp6ULQzgQwxWCFgrzOfEQ60G8RJAXHKe02SqZGqv0hdanS9gspf4cVyL3K/P1UJqdwFLyv84UcJT8mFpRZnwSxBSILQqEiVEQq0HsmJcdF6G0GVOUyY4aspFIY2XxW0AcKxCFBir4sYJ0SUis0r40N28oX2xrppATpcQH8zPjwxT1wdp4XHn8MBfsikDEShjiEeSNjxzKhS8IClbkjnULRAlxSp4P4vzAWMVcnCLOiVHa42aCnFCZ3gxi17yCOOVcPDEfLkgFP54uzo+JV8SJF2Vxw2MU8eArQSRggyDABFLY0sBUkAWE7b0NvfCfYiQEcIEEZAABcFBqhmYkyUdE8BoHisCfEAlA3vC8QPmoABRA/ZdhreLqANLlowXyGdngGcS5IALkwP9S+SzRsLdE8BRqhP/wzoWNB+PNgU02/u/1Q9pvGhbURCo10iGPTPUhS2IwMYgYRgwh2uIGuB/ug0fCawBsLrgn7jWUxzd7wjNCB+Ex4Qahk3BnirBY8kOUY0En5A9R1iLt+1rgVpDTDQ/EfSE7ZMYZuAFwwF2hHxbuDz27QS1bGbesKswfuP+WwXd3Q2lHdiKjZF1yANnmx5lqdmpuwyyyWn9fH0WsacP1Zg+P/Oif/V31+bCP+NESW4Idws5iJ7HzWDPWAJjYCawRu4Qdk+Hh1fVUvrqGvMXK48mGPMJ/+Bu6s7JK5jnVOvU4fVaM5QsKZc9owJ4qniERZmTmM1nwjSBgckQ8x5FMFycXVwBk7xfF4+sNQ/7eQBgXvumK3wLgyx8cHGz+pouEe/3wIrj9n33TWR+HjwldAM6V8aSSAoUOl10I8CmhDneaPjAG5sAG5uMC3IEPCADBIBxEg3iQDCbD6DPhOpeA6WAWmA9KQBlYCdaBjWAL2A52g33gIGgAzeAkOAMugivgBrgHV08XeAH6wDswgCAICaEhdEQfMUEsEXvEBfFE/JBgJBKJRZKRVCQDESFSZBayAClDViMbkW1IDfILchQ5iZxHOpA7yCOkB3mNfEIxlIpqo0aoFToK9URZaAQaj05CM9BpaBG6EF2OVqDV6F60Hj2JXkRvoJ3oC7QfA5gqxsBMMQfME2Nj0VgKlo5JsDlYKVaOVWN1WBO8z9ewTqwX+4gTcTrOxB3gCg7DE3AePg2fgy/DN+K78Xq8Db+GP8L78K8EGsGQYE/wJnAI4wkZhOmEEkI5YSfhCOE03EtdhHdEIpFBtCZ6wL2YTMwiziQuI24i7ie2EDuIT4j9JBJJn2RP8iVFk7ikfFIJaQNpL+kE6Sqpi/RBRVXFRMVFJUQlRUWkUqxSrrJH5bjKVZXnKgNkDbIl2ZscTeaTZ5BXkHeQm8iXyV3kAYomxZriS4mnZFHmUyoodZTTlPuUN6qqqmaqXqrjVIWq81QrVA+onlN9pPqRqkW1o7KpE6lS6nLqLmoL9Q71DY1Gs6IF0FJo+bTltBraKdpD2gc1upqjGkeNrzZXrVKtXu2q2kt1srqlOkt9snqRern6IfXL6r0aZA0rDbYGV2OORqXGUY1bGv2adE1nzWjNXM1lmns0z2t2a5G0rLSCtfhaC7W2a53SekLH6OZ0Np1HX0DfQT9N79Imaltrc7SztMu092m3a/fpaOm46iTqFOpU6hzT6WRgDCsGh5HDWME4yLjJ+KRrpMvSFegu1a3Tvar7Xm+EXoCeQK9Ub7/eDb1P+kz9YP1s/VX6DfoPDHADO4NxBtMNNhucNugdoT3CZwRvROmIgyPuGqKGdoaxhjMNtxteMuw3MjYKNRIbbTA6ZdRrzDAOMM4yXmt83LjHhG7iZyI0WWtywuQPpg6TxcxhVjDbmH2mhqZhplLTbabtpgNm1mYJZsVm+80emFPMPc3Tzdeat5r3WZhYjLWYZVFrcdeSbOlpmWm53vKs5Xsra6skq8VWDVbd1nrWHOsi61rr+zY0G3+baTbVNtdtibaettm2m2yv2KF2bnaZdpV2l+1Re3d7of0m+46RhJFeI0Ujq0fecqA6sBwKHGodHjkyHCMdix0bHF+OshiVMmrVqLOjvjq5OeU47XC656zlHO5c7Nzk/NrFzoXnUulyfTRtdMjouaMbR79ytXcVuG52ve1Gdxvrttit1e2Lu4e7xL3OvcfDwiPVo8rjlqe2Z4znMs9zXgSvQK+5Xs1eH73dvfO9D3r/5ePgk+2zx6d7jPUYwZgdY574mvlyfbf5dvox/VL9tvp1+pv6c/2r/R8HmAfwA3YGPGfZsrJYe1kvA50CJYFHAt+zvdmz2S1BWFBoUGlQe7BWcELwxuCHIWYhGSG1IX2hbqEzQ1vCCGERYavCbnGMODxODacv3CN8dnhbBDUiLmJjxONIu0hJZNNYdGz42DVj70dZRomiGqJBNCd6TfSDGOuYaTG/jiOOixlXOe5ZrHPsrNizcfS4KXF74t7FB8aviL+XYJMgTWhNVE+cmFiT+D4pKGl1Uuf4UeNnj7+YbJAsTG5MIaUkpuxM6Z8QPGHdhK6JbhNLJt6cZD2pcNL5yQaTcyYfm6I+hTvlUCohNSl1T+pnbjS3mtufxkmrSuvjsXnreS/4Afy1/B6Br2C14Hm6b/rq9O4M34w1GT2Z/pnlmb1CtnCj8FVWWNaWrPfZ0dm7sgdzknL256rkpuYeFWmJskVtU42nFk7tENuLS8Sd07ynrZvWJ4mQ7MxD8iblNeZrww/5S1Ib6SLpowK/gsqCD9MTpx8q1CwUFV6aYTdj6YznRSFFP8/EZ/Jmts4ynTV/1qPZrNnb5iBz0ua0zjWfu3Bu17zQebvnU+Znz/+t2Kl4dfHbBUkLmhYaLZy38Mmi0EW1JWolkpJbi30Wb1mCLxEuaV86eumGpV9L+aUXypzKyss+L+Mtu/CT808VPw0uT1/evsJ9xeaVxJWilTdX+a/avVpzddHqJ2vGrqlfy1xbuvbtuinrzpe7lm9ZT1kvXd9ZEVnRuMFiw8oNnzdmbrxRGVi5v8qwamnV+038TVc3B2yu22K0pWzLp63Crbe3hW6rr7aqLt9O3F6w/dmOxB1nf/b8uWanwc6ynV92iXZ17o7d3VbjUVOzx3DPilq0Vlrbs3fi3iv7gvY11jnUbdvP2F92AByQHvjjl9Rfbh6MONh6yPNQ3WHLw1VH6EdK65H6GfV9DZkNnY3JjR1Hw4+2Nvk0HfnV8dddzabNlcd0jq04Tjm+8PjgiaIT/S3ilt6TGSeftE5pvXdq/KnrbePa2k9HnD53JuTMqbOssyfO+Z5rPu99/ugFzwsNF90v1l9yu3TkN7ffjrS7t9df9rjceMXrSlPHmI7jV/2vnrwWdO3Mdc71izeibnTcTLh5+9bEW523+be77+TceXW34O7AvXn3CfdLH2g8KH9o+LD6d9vf93e6dx57FPTo0uO4x/ee8J68eJr39HPXwme0Z+XPTZ7XdLt0N/eE9Fz5Y8IfXS/ELwZ6S/7U/LPqpc3Lw38F/HWpb3xf1yvJq8HXy97ov9n11vVta39M/8N3ue8G3pd+0P+w+6Pnx7Ofkj49H5j+mfS54ovtl6avEV/vD+YODoq5Eq78UwCDDU1PB+D1LgBoyQDQ4fmMMkFx/pMLojizyhH4T1hxRpSLOwB1sJN9xrNbADgAm9U8yB0AgOwTPj4AoKNHD7ehs5r8XCkTIjwHbHWSoasmtcvAD6I4c34X9489kLG6gh/7fwGI+nsFHyrmlwAAAIplWElmTU0AKgAAAAgABAEaAAUAAAABAAAAPgEbAAUAAAABAAAARgEoAAMAAAABAAIAAIdpAAQAAAABAAAATgAAAAAAAACQAAAAAQAAAJAAAAABAAOShgAHAAAAEgAAAHigAgAEAAAAAQAAAUygAwAEAAAAAQAAAIAAAAAAQVNDSUkAAABTY3JlZW5zaG905c3bjQAAAAlwSFlzAAAWJQAAFiUBSVIk8AAAAdZpVFh0WE1MOmNvbS5hZG9iZS54bXAAAAAAADx4OnhtcG1ldGEgeG1sbnM6eD0iYWRvYmU6bnM6bWV0YS8iIHg6eG1wdGs9IlhNUCBDb3JlIDYuMC4wIj4KICAgPHJkZjpSREYgeG1sbnM6cmRmPSJodHRwOi8vd3d3LnczLm9yZy8xOTk5LzAyLzIyLXJkZi1zeW50YXgtbnMjIj4KICAgICAgPHJkZjpEZXNjcmlwdGlvbiByZGY6YWJvdXQ9IiIKICAgICAgICAgICAgeG1sbnM6ZXhpZj0iaHR0cDovL25zLmFkb2JlLmNvbS9leGlmLzEuMC8iPgogICAgICAgICA8ZXhpZjpQaXhlbFlEaW1lbnNpb24+MTI4PC9leGlmOlBpeGVsWURpbWVuc2lvbj4KICAgICAgICAgPGV4aWY6UGl4ZWxYRGltZW5zaW9uPjMzMjwvZXhpZjpQaXhlbFhEaW1lbnNpb24+CiAgICAgICAgIDxleGlmOlVzZXJDb21tZW50PlNjcmVlbnNob3Q8L2V4aWY6VXNlckNvbW1lbnQ+CiAgICAgIDwvcmRmOkRlc2NyaXB0aW9uPgogICA8L3JkZjpSREY+CjwveDp4bXBtZXRhPgru+Dz7AAAAHGlET1QAAAACAAAAAAAAAEAAAAAoAAAAQAAAAEAAABAB3e+raAAAD81JREFUeAHsnQd4FEUbx1/9lN4xIiJFuvTQDCAEgvQAUgSpkWYAqUqLVIUgTUBKPgUkIEV6FxLA0ExAIAQBqdJBBDSAgIW2zrs46+xmd2+u4HOXe+d5kp2deaf9ZvZ/sztzt08pzAE5IkAEiAARcEjgKRJMh4zIgAgQASKgEiDBpIFABIgAEZAkQIIpCYrMiAARIAIkmDQGiAARIAKSBEgwJUGRGREgAkSABJPGABEgAkRAkgAJpiQoMiMCRIAIkGDSGCACRIAISBIgwZQERWZEgAgQARJMGgNEgAgQAUkCJJiSoMiMCBABIkCCSWOACBABIiBJgARTEhSZEQEiQARIMGkMEAEiQAQkCZBgSoIiMyJABIgACSaNASJABIiAJAESTElQZEYEiAARIMGkMUAEiAARkCRAgikJisyIABEgAiSYNAaIABEgApIESDAlQZEZESACRIAEk8YAESACRECSAAmmJCgyIwJEgAiQYNIYIAJEgAhIEiDBlARFZkSACBABEkwaA0SACBABSQKpTjBnL1wKCfuTIHrqOEkEZEYEiAARkCOQqgRzT+JBqNm8ndry8cMGQd9uYXIUyIoIEAEiIEEg1Qjm3d9/Z2LZHg4fO6E1O/aruRBc9VXtnDxEgAgQAXcIpBrB7Nx/CCxetV7HovQrxWDLsnmQLUsWXTidEAEiQARcIZAqBHPKrGiIiJxk2v62zRvD3Cn0PNMUDgUSASLgFAGfF8ytuxIgtH0320Z/PHQA9H+nk60NRRIBIkAEHBHwacG8cesW1HurMxw6etxROyF2STQEV6ns0I4MiAARIAJWBHxaMPuPiIT/z19s1TZdeNVK5VXRfPaZZ3ThdEIEiAARkCXgs4K5fP0m6NBrgGw7VbuBPbvC6MH9nUpDxkSACBABTsAnBfPyz1eh/lud4NTZ87wd0sfV0VHQICRY2p4MiQARIAKcgE8KZvjAYTB/2WreBqeOgaVKQMySuZA1c2an0pExESACRMDnBHP1pi3Qpns/t3puWL+eMKz/u27lQYmJABHwPwI+J5i13+wI8XsT3eqp3M8HQMKG5ZA7V4Bb+VBiIkAE/IuATwnmrAVLoM+w0R7pIZplegQjZUIE/IqAzwjmzVu/QY032sDJM+c80kE0y/QIRsqECPgVAZ8RzDFTZsKYqVEe7RyaZXoUJ2VGBFI9AZ8RzOpN28C+g4c82iElixWBxM1rPJonZUYEiEDqJeATgolCiYL5JNyyWdOgSb3aTyJrypMIEIFURsAnBPNJ3I7zfmzTrDH9OjuHQUciQARsCfiEYDpzO/6/p5+GapUrwM49+2wbziPTp0sLSVvXQ4G8eXiQ9BGF3M55cq/nf1mWXZsozj0CjvqR554ubVrIz8Zk/pdeZH95IFfAczxK+ojXwM7de6Xt0RDLef65nFC8SCEoVuhlp9L6g7HXC+aFyz9B0ap1pPsiS6aMqmBuitspnWb+tAnQumkjaXtu6GjmGzXuQ+jcpiU3d+sYUKIy3L571zSPGkGVYPPSeaZxFOhdBNLlL+lShV5gQhbWujmE1qkFlcqVkcoDBbNu67elbM2MKgeWhbrB1WBQr3cgzbPPmpn4XZjXC+bm7d9Ck7Bw6Y55gW1Kr8Z+mWjl17HSaSJ6d4eRA3pL23NDPos9dvJH6Dt8DA/WjsULF4SD3+h/BV6LdMKz8Zvt0Lxzym8m4Sp/jX9+sg5Fk5z3E8Axs3Hrdpg6e55pZXk//v7HH3D91xvsLxnQLzoUzOHsm2p1a74mBqfw8/E5ddY8wDFkdHleyAWFCuTTgs9f+gnOX7qsnXMPljfo3W7QuG4ID/Lbo9cLJg6sIWMmSncQDoCqFcvDghXyq98Na9eEVXPtb68dVcBq5rAvZhXgqzLccXVbd2KPGFLeWuGskl9g7uRPaf97AvgB+/mXX2kFZ8uSGX4+vEc7Fz0LV66FhSvWwvaE78RgmDF2JHRt10oXZnVSrFpdnRi2Zc/up0UOh0wZM+qSXP3lV0g8eBjmLF6eQmQXRU2GFo3q6ez97cTrBTOsz0BYunajdL+UYeJUhc0wxcHoKDFuYj+7b7sjM8v4h48eQcaXS6vxoa/Xgg1bt2m27Vs0hTmTx2rnznp+vnYdClSqqSZDceSzBgwgwVSx+OQ/4+McmT3BeNfUrud7uvbKpMMEeGvu7NhZvHo9dO43RFfe/tjVUKp4UV2YP514vWDit3v2Jsnvv6xSIRCqVAyEyZ/Pdaofb544AOnYApAr7v79B5C5cFk1KQ5g4wb7P8//4Eq2apohkRMBb6nQkWCqGFLFP1cEExtutsXu64WzoXb1qrZcXBFMzBAfBYm38/7+m7JeL5ilazZiv3t5znYwiJE4cKpUKJdCtEQbM//Zvdtd/jGOP//6C7IVLa9mi4KJb688c+GiVsyno4dBeEfX9pFmLRIIf927BzhzzpY1i9OzBK0S5PEqAq4KJjbi1xs3IU+5arr27Fr7le1ikKuCiR/W+KHNXYUypSB+/VJ+6ndHrxfMvIHV4XpysnTH4CZ0nGVGjDV/i6RVRklb1sIrRQtbRduG40P5HMUrqjYomGnSpIERE6ZqaQrmzwtHd8Zo57KeZes2QsfeA1XzyaM+gDUxW0gwZeF5uZ07golNm790FYQPGq61ErcAbVk2X90SpAUKHlcF0/hmA9xydCFRfgeKUIVU4fV6wcxUsAw8ePhQGnabZqEQxASzr5O/ahS3YgHge39ccbfv3IWAko9fsIaCibPJvOWr67LauWYx4DYNZxx/HJEhfXq4lLQL3ni7h8cEE1dff2F/15NvQECO7PBczhwQwP6epMMyL1+5Cg8fPYSc2bNBjmzZIEvmTB4p8srV63Dl2jV1+wsu/KVPl84j+YqZiMxyMeF4PiAnZM+aVTSR9rsrmFhQk47hsHnHt1qZE0cMht5dOmrnosdVwdy6Mx5CO7yjZYVjMfn4fu3c3zxeL5gvswWPK2zhQ9Z1bduKCWY56Pr+B7JJVLvD276GIgULOJWGG9/67TbkKh2knqJg4ob1t/sOhiVrNnATaN2kIcyf/u+tjRZh4fmRvX6jVM2Gamy39q1heuQIlx7ci9nv3p8E+APM0+bMF4N1/j5dw6BZgzrqc2BdhIOTL5evVldyy5cpCeOGPp4VY5J5S1bCtoQ9sGVHPCTfvJUiFywr+tPxgBu1nXWL2Orx2thvYB37MzrjlhljPJ5jPznaZRC7fZea/xds1djM4YJhl7ZvQr1a1W1viY1pPSGYk6LmwLDxU7Ss7W6XXRVMfLMBvuGAO7syuE1qPnq9YIa06AAJ+w9I90FfdsGjYLbp4dzLzu6c/h6ecfGNkigEL5Z9/NCdC+YO9g2Leuy9Q6JLPp4IGdLLzXx6D/0IZi98/Kwofv0yqMCEyNVBj3Xo9v5Qp7ZadWj5Bsz+JFKsvql/T+JBGDVpmrblJeS1KrBx0RzVtmXXXrBhy787Bkwz+CfQmdVX/AHpCTNnA4qZjMNN1xkzZAB8LbPo7HYZXLx8Bbq8F6Gb0YtpzfyyzDCtJwQT9/8G1mmqq4rVnYyrY8dYT1r0URRFR9zLTrr0j4BFq9ZJ1yqiT3d10adJWHfpNHlfzA2ndm+Vtjca4q3tS//cgnPBRJvKDVro3plud8tkzDNDgdLwSHkEwUGVIXZptBrt6qA37sHDOuLz2hLs6294xAvv6KnT6lFc4cev5J2I32ysmnaO21SwTqLLmT077N20Ej757AuImrcI+AysfkgNKJg/H9xgHy64n3DlhhiIi/933yHOCE9/FydmZerfuisBQtt308XVqhYEbZs3VmeLDx48hNhtu1QxFQU1X57csGLODLj40xX4hT2GuMF+X7V86ZKmM8yEfQcgpGUHXRlGZoePnYDDx05CTNwOWMbeYMqdI2bczihE4rjhNjLHwNebwDHWd9xZCZorYwfHRXCzdvDbnTs8e3Dmg01LlJo8TC+92o2ePENJm6+E9N/EqNnKru/2S9tj3nVahbnFgO2V1MrD+nLHBEMLx3IKBYXwKNsju/3T0rENy5ot1lNkwWaxWpyVp0qjN3VpZsxdYGWqhmO8WAamt3JYPv5Vrt9cl4b3Gdubquz//ohVcoXb8fIiIidZ2mIEEymlcFBtXVnsMYNlmh6DR+hsX23YQmE7GiztMeLevfu6NFg3R8z6DP1Il8aOGS/c2HZx3HAbmWPH3gN0ZYf1HmiazNmxc+7iJaVZp566vFdsiDHN258Cwdsbuy1+j67T+MVldYyKXqQcOPSDU2lcHaycHXvtr1aemBf7lXglY8EyWhzWOe7b3TyZ5TGoYUs1DYqD6Jwd9B+MnaQrm626i9lZ+tFO5Iv52Dm8uER77p8ZvdAumXLqzDklS+FyWtqSwQ1s7XsOGanZYhn4weLIDR8/VZdmwsxZtknYYqHOXpaZUQAdMTPai+PGtoKGyJETP9XVt1aL9gaLx6dmY4d/4IlH9ixaGT9jllKgYrCWb9XQVgp7Tmyar78Fer1gsls4reP4hWh3ZNstlJOnzzqVZlPcDrf6nT3v0sozDvxeER9qcVjvt8L72ZaVdOSoZj/048k6W7NBrzMQTthtpZYPlsu+ISLEOvaivciZfaffNpFoi/53h4yyteeRxlkMW0DjUbpj4qEjuvpkL1ZBYavWOhuzk9t37ihsL6uWFj+MrBy2UWyHM8zY3kilRI36uvTYB1bOU4I5b+lKXZnGD1levnHsiO208xvHM8/PX49eL5jYMcHN2uoGhV0Hs31jCtu6Im2PeV25es2t/j938bJWnnGAsUURLY7X2+5CZyuSmj1bKdfVyzjocWZg5Yyzy3ibi9csD7Tn9cUj2w9qZqaFibboP3L8pBZn52EvtdOVsy/pkKk53g6KZVRr3MrUziyQbb/R0mYuVFa5f/++mZnaRrEMZ5nNnLtQKwfzsZtlekowcQyIdUa/mTOOHWMaR+f9R0QqMdt2mmXtV2E+IZjGwWXXuexrXArOUuxsxDi8mNx1Z85f0MozCibmHcJuk8Qyx03/zLJIbmc2EzUOejvBZN+Q0sps1K6rZXl2Ec069dDywHrZPY/k9cYj3s7JOmPfWrVp+pwvdXUJHzhctggFL3axfmyRJEVabJtog213xeUq9aqWD/aBlTO222zcWKUVw/EWWqy37AzTijPmfejocWXRynVKp36DdXljOSPYIw5/dj4hmHuTvk/RceIgEf04ENhKqbQ9zgrcdfgsjtfBbODjYwIej8d85WuYFikuEq3fHJfCRlYwT/x4RleeM7eWYqH9ho/R5bNq42YxWucX24e32bLOKBxWF7Jx9obPM2XdgFEf69pxkD32MDpsm9gGbLsrzrgAhn1h5oztNhs3ZumMYcZ8nHmGaczL7Nw4s0dG3QfJf1iZ5enLYX8DAAD//5bfTW4AAA8ASURBVO2dC5hP1RbAly/dFCFv8oguCeM1CEnkFUKDkUYRJkLkUdJck5hJF0PkVc2EvMpMmRCKUSh0RZrkFbleedOLSN3O3et09+7s/T/PKd/d//+s/X06++y99t5r/dY+63/OPvtMYIRJatKxu3Fd+Wqe/7Z9vtO0qHCVOp6y2N+Bfx/+0wT2HTgoxkqaMiOkvwsXfzJKRTUUMjjuu2s/DJGLbn2/KXNH2y4hdVjQqlsvqY8NW7bayq1Ys06SG/TMc7ZyXoXTUl+X+klduMSxidU3dgycGqKsta2TTcvey5LkmnXu4dRlSHls/GCp7YnTZ0Jk0DarHmh7TpI6FvrCLql2B2Fm7S9+eIKkd8/BT1qrRd7v3BENLJntX3wpjYGcPvh4i0Ui92QhXExdkPFOiNOsE5zn93x1wDSpTK3GnvIJ41P+EvN3szH5+E4T/5nnJwkZlI3pPUAae9On20V9yuw0qY6f+J30k2e/JvrCsZ6dOJV3Eei4+oONUj//nP6KY3tuPx6dGNg1VgOHU8A8cuy4UaJ6A6EP+tdvKh/dVLRr1D7WthnaZrUBbc9Jwjll7Qd9YZdUu4Mws/anzomnkyZaq0VelXPiLBoomYGjxkh2dekzSJHIHadhEzDRHe0fipecZp2YPH+YXViY/t6whatsVLP2xtnz35qyf/Y/X+79SozlNPG3Z4f+Sh86+o0Yus+wUWYfxas1MM6cOy/KrRm/k37em28LfZDL08n2F5G1b7t8+vJVUj/T0+bbiZllnD8enRjYNVYDh9uFPDhhnKTPG5nv2nUplak2pC1Kl+r5CdpmtQHb5SQ9zu7mrf2gL+ySancQZry/c99+J42F42auWsOrpaPfuSM1spwsenu5NFaQHyxLN2GfDauAuWrdeslp1onJ8zwI1rrnPldZp4mcE49m79ojxnKb+J169RdyqG/ihBfN4S7+dEmUDxrl/Pjsd9Jv/vQz0R+O89jIxJyYZUyamSr1gxeNU+L88ejGQG2vBg63gHnp0mWjY0+Z4e59+9UuxfmMOQsk/e99sI+oUzNqQEDbc5I6PNxPGhN9YZdUu4Mw4/0tzlwhjdX4vm68KuTod+6ENPxfwaGjx6Sx0M9793/tJB6x5WEVMNELvQY/FeI468V66fJl01n46GUtt+a79P1rHyc+27lLjOU28dWLslRUI1NX61rhxk8+Ncvs/uN30uOPhtXe7o8NtevOs0x9DFu1boNjG+t4bgzUDtTA4RYwse3xk6eNZjE9JPsGJ4w1cJ3t/Hffm/Ur2fqw2m+xavXVoaVztM1qA9qek1SzeXupH/4Drval6heEGe/rkSEjpbFeSnNed/U7d3jf6vHwsW+ksZAVzvvclsIuYG79LDvEcXyi52NO5KllbE9HOadffd426HFb9k4xltvEv/zzzyFLBenLVhn8Imsb19d16CCT3vqD0aZ7b9d+nSpRH862dM3GxtHjJ5xEhRzKuzFQO1ADh1fAxPZ4V1m7RQdpTK6n3REDqldC29BG3t7LF3b9HTtx0ihU+Y+XjU7rpdhWtTsIM2w/Z3GG0BV1rtK4lXHqzFmssk1B5o5dB4uXyo/kOCbam9tS2AVMdBC+FOET23osWrWe8F+nXo/Zyji9UBENc5D5lyWIe038ZydMlfRq/cAj4nzum2+5jh5k0s+cs1D0i4wyVqx27VutRHkr26fGTVBFpHOrrBcDa0M1cPgJmHEDhgndqjW9V+StOmAeec11WEO06sDzaKO1j6DMEsZPltqjD5ySancQZthn4Sp1pbHmZ2Q6DWWWB5k7dh2pTxuVGjQ3rly5Yica0WVhGTDRIw8NGiFNGJzo5ereJZzVY+DwkHpsczXSlm07xFheE9+63mm9OKve2ZpNwF9c1Qsy6XG7lLX/5gG24aASKG9tn71rr6tuVlkvBtaO1MDhFTCt8r2HPm12dfrsOSNz9VojZVaaMWvuQmMpe/GRk/U1tNFqRxBmO/fsCwliblvWrHbgmEGYqfPAzx202saLs9VHK7PWG/krRklsprw8xypi5rHPcZOnG2NTXjLmp2cav/32W4hMuBeEbcBE8NXvbis5sWqTNsIf/Z4cLdWh7NVKH2/dJsbyM/G7PTpEyPMLNJHdeXqloJNevSj9bqNSt8b4sYnbEfTiV3V0u5Azlv9x11uvTYy5ZunFLGj9iOdekHzjh9lJ9iiM6+JBGKh2+2H89aEjIXtxY3oP9GVi0LnDO/1k++dGmVp3SrY1bNc15O5yIwuWBw8fNea8kWGgD3+8cNHAx/hIS2EdMNEZ1kcT3PjN0/Ax44WTC1SqyYuvyhEnC79Y/Ez8JctWCnneDu9QvFJOJv39jwyQxsILGy88u4Tl6oWP7f0kbgce/TDgfaqBwylgfrF7n3FLvbuFLes+2sy7+MuP5eo0EeOgPW7M1m7cZOAWNav9fpipdhe93fmlFL7Ewhc8pWs2ksbxs62Kw1HnDm5490r4mF/tLnnJA/fC4hOVmvgLp77DnzHw8f0ce/HIy1TZcD7Pg8pDmCd2twFsLyTcUbcWbMhcbFrDNmvDxJmpULpEcdj90Xtwfb58V83K5BdnQvLUWWb/7Vo0gxfHJUCFsjc7jsceVaBuq06w98BBUya2Q1tYMCPFUR4r2Ntz6Nr3cfjhwgUh93DX+2F8wggoXrSIKLPLWPXD+hvz54foWjWgQZ1a0LJpY8jauBm27sgGtlcUfrx4UXQxeuhAGD1skDh3yqj9o9yuDavh1lvKOzUxy9mbVxjyjyR4f/1HQm5a0mjo3/NBcc4zr8x/A55ITOanvo4FCxSAIjcVhqI3FYLaNapB37hYqBtV3Vfbzn0GAdvGJmRVZquy1sOW7TuArV8LGcz4YcY+roA6zP92qWnD+mYx22oG7CUOsOUGuPLLL5Io2pAyZhQ0rl9XKnc6YV8bQeyjQ0KqixQuBDWqVgkpZ3uZAX2jpobRtWFYv97Q6d6WahVMmpUGTw7oC0NGJ0Hea66BCYkjge3+gKcGxofIhnNBRARMdED3/k/AO+9lwaJZUyD/9debF1fBAvlh5aI0KFGs6FXxEXthYwYyu869LpykKTPh+Wm/B9mM1OnQofU9dt2YZW7joABeZGuWzDNlnf6zaOlyGDd5hu2FoLYpW7oUjB35BPTo3FGtks4xiKNuTslNLy+b0B4ePLD/tRs2QYee/ZyG8l2OQXPmC8/5kh8zaRpMf20B/HTpkqc8/kA+O+JxT2b5KvgL2HYD3tOkEfTqFgMPdGpvVx1S5uWfkAY2BTeXKgnN72xozk+7QMmbsPVaYE8HULnSLVD+5tKwjf345smTB7q0b8NFIuIYMQETvcFe9MDbK9+HG1jArMfuoF6emASVKpS7ao7yChZud2fsc0rzLjO6Zg3YtGKJq45u4/CGXgGTyyGfpezfVwcPwWl2B3OK3cEUL1IEihW9ybxTjWNBMq5zB/jbtdfyJo5HvCDZcoRjPVY4McC7UrfUtFEDKWCiLFvKALwwj586Da8tzjCbd+vYDqqwi9QuHTtxCo58cxzYd89SdZCgyb66MnkhN8yfPfctnDl/HkqyH+ESxYuZY3dmQcFvYPCymyuaN29eKFTwRijM/hUqWBAqV6xgBiNe7+foxz92/ZRkduFNRsXyZaFmtap2IrZlbHM7888RyJv3Gsh/ww1Qv3aUrVxYF4bzeoKq++zXF4s1nqmvzlWr6TwCCFi3twxNTPZlEa4Bqut/QdZZfQ1CQrmCQETdYa5Y8wFbqxls/oC9mpIMPWNjwvrHjJSXCbAXCsC+ljIL8Y4Ol1/8JrwjZX+1SYh3bN0C0lNfEueUIQJ+CERUwGRf3AD7M3Cm3V7rgn7gkIw+BPDlyt0xcUKhieylwpD4XuLcK7OfLUFENf9j7Q8fdU/u/MSrGdUTAYlARAVM9qkWsL9SZBqYlTEfmjSIloylk/AlMDV1HoxKniQM2PnhykBret//8COUjGoo2t9e+VbYkfX73aoopAwR8CAQUQHz11//A+Wj7wL2Rxhg+5p3oPptlT3Mp+pwIaC+VT+evRlwW4zfpG6twS1ZqZOf99uc5IiASSCiAiZaxPdkHtz6IZQpWYLcHCEE8O4S7zJ5+nj5m2wnhP+3sOpe0VcnsTVutkWHEhEIQiDiAibftjFiQDzbrH5dEBYkqzGB15cshf4jE4WGvbt3hdkTxopzt8w81pb9TVAhEvSFkWhImVxPIOICZq73aIQCwK9j4tg+2z37vxYW4scBfeO6QemSxUWZNXPi1Bm2XzNdfIWFdfh1Ez6K33ZrRaso5YmALwIUMH1hIiEdCNgFTfz0FTeil2FfpGCe/c1Rc1M+yuKXJ+x/eCZUj2nbit2VjoPChQqKMsoQgSAEKGAGoUWy/3cCGAhTF6XDwreWSd/VuymG3/fHs6DarmUzNzGqIwKeBChgeiIiAR0J4Gd4GDT5H4rgR/7JYsVyZc1PK5s2qh/o8z4dbSWd9CFAAVMfX5AmRIAIaE6AAqbmDiL1iAAR0IcABUx9fEGaEAEioDkBCpiaO4jUIwJEQB8CFDD18QVpQgSIgOYEKGBq7iBSjwgQAX0IUMDUxxekCREgApoToICpuYNIPSJABPQhQAFTH1+QJkSACGhOgAKm5g4i9YgAEdCHAAVMfXxBmhABIqA5AQqYmjuI1CMCREAfAhQw9fEFaUIEiIDmBChgau4gUo8IEAF9CFDA1McXpAkRIAKaE6CAqbmDSD0iQAT0IUABUx9fkCZEgAhoToACpuYOIvWIABHQhwAFTH18QZoQASKgOQEKmJo7iNQjAkRAHwIUMPXxBWlCBIiA5gQoYGruIFKPCBABfQhQwNTHF6QJESACmhOggKm5g0g9IkAE9CFAAVMfX5AmRIAIaE6AAqbmDiL1iAAR0IcABUx9fEGaEAEioDkBCpiaO4jUIwJEQB8CFDD18QVpQgSIgOYEKGBq7iBSjwgQAX0IUMDUxxekCREgApoToICpuYNIPSJABPQhQAFTH1+QJkSACGhOgAKm5g4i9YgAEdCHAAVMfXxBmhABIqA5AQqYmjuI1CMCREAfAhQw9fEFaUIEiIDmBChgau4gUo8IEAF9CFDA1McXpAkRIAKaE6CAqbmDSD0iQAT0IfBfZiiTd2ZEaBoAAAAASUVORK5CYII=;" parent="8aHG0Ycmiw9dC2gy8iPI-13" vertex="1">
          <mxGeometry x="567.5699999999999" y="61" width="101.15" height="39" as="geometry" />
        </mxCell>
        <mxCell id="8aHG0Ycmiw9dC2gy8iPI-26" value="" style="group;rounded=1;" parent="1" connectable="0" vertex="1">
          <mxGeometry x="-599.74" y="769" width="829.74" height="259.51" as="geometry" />
        </mxCell>
        <mxCell id="8aHG0Ycmiw9dC2gy8iPI-27" value="" style="shape=image;verticalLabelPosition=bottom;labelBackgroundColor=default;verticalAlign=top;aspect=fixed;imageAspect=0;image=data:image/svg+xml,PHN2ZyB4bWxucz0iaHR0cDovL3d3dy53My5vcmcvMjAwMC9zdmciIHdpZHRoPSIyMTk0IiB2aWV3Qm94PSIxNzUuNyA3OCA0OTAuNiA0MzYuOSIgaGVpZ2h0PSIyNTAwIj48ZyBmaWxsPSIjNjFkYWZiIj48cGF0aCBkPSJtNjY2LjMgMjk2LjVjMC0zMi41LTQwLjctNjMuMy0xMDMuMS04Mi40IDE0LjQtNjMuNiA4LTExNC4yLTIwLjItMTMwLjQtNi41LTMuOC0xNC4xLTUuNi0yMi40LTUuNnYyMi4zYzQuNiAwIDguMy45IDExLjQgMi42IDEzLjYgNy44IDE5LjUgMzcuNSAxNC45IDc1LjctMS4xIDkuNC0yLjkgMTkuMy01LjEgMjkuNC0xOS42LTQuOC00MS04LjUtNjMuNS0xMC45LTEzLjUtMTguNS0yNy41LTM1LjMtNDEuNi01MCAzMi42LTMwLjMgNjMuMi00Ni45IDg0LTQ2Ljl2LTIyLjNjLTI3LjUgMC02My41IDE5LjYtOTkuOSA1My42LTM2LjQtMzMuOC03Mi40LTUzLjItOTkuOS01My4ydjIyLjNjMjAuNyAwIDUxLjQgMTYuNSA4NCA0Ni42LTE0IDE0LjctMjggMzEuNC00MS4zIDQ5LjktMjIuNiAyLjQtNDQgNi4xLTYzLjYgMTEtMi4zLTEwLTQtMTkuNy01LjItMjktNC43LTM4LjIgMS4xLTY3LjkgMTQuNi03NS44IDMtMS44IDYuOS0yLjYgMTEuNS0yLjZ2LTIyLjNjLTguNCAwLTE2IDEuOC0yMi42IDUuNi0yOC4xIDE2LjItMzQuNCA2Ni43LTE5LjkgMTMwLjEtNjIuMiAxOS4yLTEwMi43IDQ5LjktMTAyLjcgODIuMyAwIDMyLjUgNDAuNyA2My4zIDEwMy4xIDgyLjQtMTQuNCA2My42LTggMTE0LjIgMjAuMiAxMzAuNCA2LjUgMy44IDE0LjEgNS42IDIyLjUgNS42IDI3LjUgMCA2My41LTE5LjYgOTkuOS01My42IDM2LjQgMzMuOCA3Mi40IDUzLjIgOTkuOSA1My4yIDguNCAwIDE2LTEuOCAyMi42LTUuNiAyOC4xLTE2LjIgMzQuNC02Ni43IDE5LjktMTMwLjEgNjItMTkuMSAxMDIuNS00OS45IDEwMi41LTgyLjN6bS0xMzAuMi02Ni43Yy0zLjcgMTIuOS04LjMgMjYuMi0xMy41IDM5LjUtNC4xLTgtOC40LTE2LTEzLjEtMjQtNC42LTgtOS41LTE1LjgtMTQuNC0yMy40IDE0LjIgMi4xIDI3LjkgNC43IDQxIDcuOXptLTQ1LjggMTA2LjVjLTcuOCAxMy41LTE1LjggMjYuMy0yNC4xIDM4LjItMTQuOSAxLjMtMzAgMi00NS4yIDItMTUuMSAwLTMwLjItLjctNDUtMS45LTguMy0xMS45LTE2LjQtMjQuNi0yNC4yLTM4LTcuNi0xMy4xLTE0LjUtMjYuNC0yMC44LTM5LjggNi4yLTEzLjQgMTMuMi0yNi44IDIwLjctMzkuOSA3LjgtMTMuNSAxNS44LTI2LjMgMjQuMS0zOC4yIDE0LjktMS4zIDMwLTIgNDUuMi0yIDE1LjEgMCAzMC4yLjcgNDUgMS45IDguMyAxMS45IDE2LjQgMjQuNiAyNC4yIDM4IDcuNiAxMy4xIDE0LjUgMjYuNCAyMC44IDM5LjgtNi4zIDEzLjQtMTMuMiAyNi44LTIwLjcgMzkuOXptMzIuMy0xM2M1LjQgMTMuNCAxMCAyNi44IDEzLjggMzkuOC0xMy4xIDMuMi0yNi45IDUuOS00MS4yIDggNC45LTcuNyA5LjgtMTUuNiAxNC40LTIzLjcgNC42LTggOC45LTE2LjEgMTMtMjQuMXptLTEwMS40IDEwNi43Yy05LjMtOS42LTE4LjYtMjAuMy0yNy44LTMyIDkgLjQgMTguMi43IDI3LjUuNyA5LjQgMCAxOC43LS4yIDI3LjgtLjctOSAxMS43LTE4LjMgMjIuNC0yNy41IDMyem0tNzQuNC01OC45Yy0xNC4yLTIuMS0yNy45LTQuNy00MS03LjkgMy43LTEyLjkgOC4zLTI2LjIgMTMuNS0zOS41IDQuMSA4IDguNCAxNiAxMy4xIDI0czkuNSAxNS44IDE0LjQgMjMuNHptNzMuOS0yMDguMWM5LjMgOS42IDE4LjYgMjAuMyAyNy44IDMyLTktLjQtMTguMi0uNy0yNy41LS43LTkuNCAwLTE4LjcuMi0yNy44LjcgOS0xMS43IDE4LjMtMjIuNCAyNy41LTMyem0tNzQgNTguOWMtNC45IDcuNy05LjggMTUuNi0xNC40IDIzLjctNC42IDgtOC45IDE2LTEzIDI0LTUuNC0xMy40LTEwLTI2LjgtMTMuOC0zOS44IDEzLjEtMy4xIDI2LjktNS44IDQxLjItNy45em0tOTAuNSAxMjUuMmMtMzUuNC0xNS4xLTU4LjMtMzQuOS01OC4zLTUwLjZzMjIuOS0zNS42IDU4LjMtNTAuNmM4LjYtMy43IDE4LTcgMjcuNy0xMC4xIDUuNyAxOS42IDEzLjIgNDAgMjIuNSA2MC45LTkuMiAyMC44LTE2LjYgNDEuMS0yMi4yIDYwLjYtOS45LTMuMS0xOS4zLTYuNS0yOC0xMC4yem01My44IDE0Mi45Yy0xMy42LTcuOC0xOS41LTM3LjUtMTQuOS03NS43IDEuMS05LjQgMi45LTE5LjMgNS4xLTI5LjQgMTkuNiA0LjggNDEgOC41IDYzLjUgMTAuOSAxMy41IDE4LjUgMjcuNSAzNS4zIDQxLjYgNTAtMzIuNiAzMC4zLTYzLjIgNDYuOS04NCA0Ni45LTQuNS0uMS04LjMtMS0xMS4zLTIuN3ptMjM3LjItNzYuMmM0LjcgMzguMi0xLjEgNjcuOS0xNC42IDc1LjgtMyAxLjgtNi45IDIuNi0xMS41IDIuNi0yMC43IDAtNTEuNC0xNi41LTg0LTQ2LjYgMTQtMTQuNyAyOC0zMS40IDQxLjMtNDkuOSAyMi42LTIuNCA0NC02LjEgNjMuNi0xMSAyLjMgMTAuMSA0LjEgMTkuOCA1LjIgMjkuMXptMzguNS02Ni43Yy04LjYgMy43LTE4IDctMjcuNyAxMC4xLTUuNy0xOS42LTEzLjItNDAtMjIuNS02MC45IDkuMi0yMC44IDE2LjYtNDEuMSAyMi4yLTYwLjYgOS45IDMuMSAxOS4zIDYuNSAyOC4xIDEwLjIgMzUuNCAxNS4xIDU4LjMgMzQuOSA1OC4zIDUwLjYtLjEgMTUuNy0yMyAzNS42LTU4LjQgNTAuNnoiLz48Y2lyY2xlIHI9IjQ1LjciIGN5PSIyOTYuNSIgY3g9IjQyMC45Ii8+PC9nPjwvc3ZnPg==;fontSize=19;rounded=1;" parent="8aHG0Ycmiw9dC2gy8iPI-26" vertex="1">
          <mxGeometry x="-529" y="-209.91000000000003" width="84.24" height="96" as="geometry" />
        </mxCell>
        <mxCell id="8aHG0Ycmiw9dC2gy8iPI-28" value="ReactJS" style="text;html=1;strokeColor=none;fillColor=none;align=center;verticalAlign=middle;whiteSpace=wrap;rounded=1;fontSize=20;fontFamily=Architects Daughter;" parent="8aHG0Ycmiw9dC2gy8iPI-26" vertex="1">
          <mxGeometry x="-516.88" y="-127.91000000000003" width="60" height="30" as="geometry" />
        </mxCell>
        <mxCell id="8aHG0Ycmiw9dC2gy8iPI-29" value="&lt;h1&gt;&lt;br&gt;&lt;/h1&gt;&lt;div style=&quot;border-color: var(--border-color);&quot;&gt;&lt;span style=&quot;background-color: initial;&quot;&gt;Server-side Authentication:&lt;/span&gt;&lt;br&gt;&lt;/div&gt;&lt;div style=&quot;border-color: var(--border-color);&quot;&gt;The adapter authenticates the web server&lt;br style=&quot;border-color: var(--border-color);&quot;&gt;by checking its TrustStore for a trusted CA certificate&quot;&lt;br style=&quot;border-color: var(--border-color);&quot;&gt;&amp;nbsp;that validates the web server&#39;s certificate.&lt;/div&gt;&lt;div style=&quot;border-color: var(--border-color);&quot;&gt;&lt;br style=&quot;border-color: var(--border-color);&quot;&gt;&lt;/div&gt;&lt;div style=&quot;border-color: var(--border-color);&quot;&gt;Dual Authentication:&lt;br style=&quot;border-color: var(--border-color);&quot;&gt;&amp;nbsp;Both the adapter and web server authenticate&lt;br style=&quot;border-color: var(--border-color);&quot;&gt;&amp;nbsp;each other by exchanging certificates.&lt;br style=&quot;border-color: var(--border-color);&quot;&gt;&amp;nbsp;The web server verifies the adapter&#39;s&lt;/div&gt;&lt;div style=&quot;border-color: var(--border-color);&quot;&gt;&amp;nbsp;certificate,and the adapter verifies t&lt;/div&gt;&lt;div style=&quot;border-color: var(--border-color);&quot;&gt;he web server&#39;scertificate. This&amp;nbsp;&lt;/div&gt;&lt;div style=&quot;border-color: var(--border-color);&quot;&gt;two-way authentication&lt;br style=&quot;border-color: var(--border-color);&quot;&gt;&amp;nbsp;enhances security.&lt;/div&gt;" style="text;html=1;strokeColor=none;fillColor=none;spacing=5;spacingTop=-20;whiteSpace=wrap;overflow=hidden;rounded=0;align=left;" parent="8aHG0Ycmiw9dC2gy8iPI-26" vertex="1">
          <mxGeometry x="529.74" y="-29" width="300" height="288.51" as="geometry" />
        </mxCell>
        <mxCell id="8aHG0Ycmiw9dC2gy8iPI-30" value="Website" style="whiteSpace=wrap;html=1;fontSize=20;fontFamily=Architects Daughter;fontStyle=1;startSize=23;hachureGap=4;fontSource=https%3A%2F%2Ffonts.googleapis.com%2Fcss%3Ffamily%3DArchitects%2BDaughter;rounded=1;" parent="8aHG0Ycmiw9dC2gy8iPI-26" vertex="1">
          <mxGeometry x="249.74" y="85.25999999999999" width="120" height="60" as="geometry" />
        </mxCell>
        <mxCell id="8aHG0Ycmiw9dC2gy8iPI-31" value="Admin Portal" style="whiteSpace=wrap;html=1;fontSize=20;fontFamily=Architects Daughter;fontStyle=1;startSize=23;hachureGap=4;fontSource=https%3A%2F%2Ffonts.googleapis.com%2Fcss%3Ffamily%3DArchitects%2BDaughter;rounded=1;" parent="8aHG0Ycmiw9dC2gy8iPI-26" vertex="1">
          <mxGeometry x="119.74000000000001" width="140.26" height="60" as="geometry" />
        </mxCell>
        <mxCell id="8aHG0Ycmiw9dC2gy8iPI-32" style="edgeStyle=orthogonalEdgeStyle;rounded=1;hachureGap=4;orthogonalLoop=1;jettySize=auto;html=1;entryX=0;entryY=0.5;entryDx=0;entryDy=0;fontFamily=Architects Daughter;fontSource=https%3A%2F%2Ffonts.googleapis.com%2Fcss%3Ffamily%3DArchitects%2BDaughter;fontSize=16;" parent="1" source="8aHG0Ycmiw9dC2gy8iPI-42" target="8aHG0Ycmiw9dC2gy8iPI-44" edge="1">
          <mxGeometry relative="1" as="geometry">
            <mxPoint x="-582.76" y="466.17" as="sourcePoint" />
            <Array as="points">
              <mxPoint x="-710" y="235.42" />
              <mxPoint x="-710" y="340.42" />
            </Array>
          </mxGeometry>
        </mxCell>
        <mxCell id="8aHG0Ycmiw9dC2gy8iPI-33" style="edgeStyle=orthogonalEdgeStyle;rounded=0;orthogonalLoop=1;jettySize=auto;html=1;entryX=0.25;entryY=1;entryDx=0;entryDy=0;" parent="1" source="8aHG0Ycmiw9dC2gy8iPI-34" target="8aHG0Ycmiw9dC2gy8iPI-30" edge="1">
          <mxGeometry relative="1" as="geometry" />
        </mxCell>
        <mxCell id="8aHG0Ycmiw9dC2gy8iPI-34" value="Customer" style="verticalLabelPosition=bottom;html=1;fillColor=#A153A0;verticalAlign=top;align=center;pointerEvents=1;shape=mxgraph.cisco_safe.design.actor_2;hachureGap=4;fontFamily=Architects Daughter;fontSource=https%3A%2F%2Ffonts.googleapis.com%2Fcss%3Ffamily%3DArchitects%2BDaughter;fontSize=20;rounded=1;" parent="1" vertex="1">
          <mxGeometry x="-550" y="871.05" width="49" height="128.95" as="geometry" />
        </mxCell>
        <mxCell id="8aHG0Ycmiw9dC2gy8iPI-35" style="edgeStyle=orthogonalEdgeStyle;rounded=1;hachureGap=4;orthogonalLoop=1;jettySize=auto;html=1;fontFamily=Architects Daughter;fontSource=https%3A%2F%2Ffonts.googleapis.com%2Fcss%3Ffamily%3DArchitects%2BDaughter;fontSize=16;" parent="1" source="8aHG0Ycmiw9dC2gy8iPI-42" target="8aHG0Ycmiw9dC2gy8iPI-50" edge="1">
          <mxGeometry relative="1" as="geometry">
            <Array as="points">
              <mxPoint x="-810" y="235.42" />
              <mxPoint x="-810" y="421.42" />
            </Array>
          </mxGeometry>
        </mxCell>
        <mxCell id="8aHG0Ycmiw9dC2gy8iPI-36" style="edgeStyle=orthogonalEdgeStyle;rounded=1;hachureGap=4;orthogonalLoop=1;jettySize=auto;html=1;exitX=0.75;exitY=1;exitDx=0;exitDy=0;entryX=0;entryY=0.5;entryDx=0;entryDy=0;fontFamily=Architects Daughter;fontSource=https%3A%2F%2Ffonts.googleapis.com%2Fcss%3Ffamily%3DArchitects%2BDaughter;fontSize=16;startArrow=classic;startFill=1;" parent="1" source="8aHG0Ycmiw9dC2gy8iPI-109" target="8aHG0Ycmiw9dC2gy8iPI-14" edge="1">
          <mxGeometry relative="1" as="geometry" />
        </mxCell>
        <mxCell id="8aHG0Ycmiw9dC2gy8iPI-37" value="Database APIs" style="edgeLabel;html=1;align=center;verticalAlign=middle;resizable=0;points=[];fontSize=20;fontFamily=Architects Daughter;rounded=1;" parent="8aHG0Ycmiw9dC2gy8iPI-36" vertex="1" connectable="0">
          <mxGeometry x="-0.2935" y="2" relative="1" as="geometry">
            <mxPoint as="offset" />
          </mxGeometry>
        </mxCell>
        <mxCell id="8aHG0Ycmiw9dC2gy8iPI-38" style="edgeStyle=orthogonalEdgeStyle;rounded=1;hachureGap=4;orthogonalLoop=1;jettySize=auto;html=1;entryX=0;entryY=0.5;entryDx=0;entryDy=0;fontFamily=Architects Daughter;fontSource=https%3A%2F%2Ffonts.googleapis.com%2Fcss%3Ffamily%3DArchitects%2BDaughter;fontSize=16;" parent="1" source="8aHG0Ycmiw9dC2gy8iPI-109" target="8aHG0Ycmiw9dC2gy8iPI-12" edge="1">
          <mxGeometry relative="1" as="geometry" />
        </mxCell>
        <mxCell id="8aHG0Ycmiw9dC2gy8iPI-42" value="S3 Bucket" style="verticalLabelPosition=bottom;html=1;verticalAlign=top;strokeWidth=1;align=center;outlineConnect=0;dashed=0;outlineConnect=0;shape=mxgraph.aws3d.s3Bucket;fillColor=#4286c5;strokeColor=#57A2D8;aspect=fixed;hachureGap=4;fontFamily=Architects Daughter;fontSource=https%3A%2F%2Ffonts.googleapis.com%2Fcss%3Ffamily%3DArchitects%2BDaughter;fontSize=20;rounded=1;" parent="1" vertex="1">
          <mxGeometry x="-1106" y="203.08999999999997" width="61.5" height="63.800000000000004" as="geometry" />
        </mxCell>
        <mxCell id="8aHG0Ycmiw9dC2gy8iPI-43" style="edgeStyle=orthogonalEdgeStyle;rounded=1;hachureGap=4;orthogonalLoop=1;jettySize=auto;html=1;fontFamily=Architects Daughter;fontSource=https%3A%2F%2Ffonts.googleapis.com%2Fcss%3Ffamily%3DArchitects%2BDaughter;fontSize=16;" parent="1" source="8aHG0Ycmiw9dC2gy8iPI-42" target="8aHG0Ycmiw9dC2gy8iPI-48" edge="1">
          <mxGeometry relative="1" as="geometry">
            <Array as="points">
              <mxPoint x="-880" y="235.42" />
              <mxPoint x="-880" y="537.42" />
            </Array>
          </mxGeometry>
        </mxCell>
        <mxCell id="8aHG0Ycmiw9dC2gy8iPI-44" value="" style="shape=image;html=1;verticalAlign=top;verticalLabelPosition=bottom;labelBackgroundColor=#ffffff;imageAspect=0;aspect=fixed;image=https://cdn2.iconfinder.com/data/icons/boxicons-logos/24/bxl-javascript-128.png;hachureGap=4;fontFamily=Architects Daughter;fontSource=https%3A%2F%2Ffonts.googleapis.com%2Fcss%3Ffamily%3DArchitects%2BDaughter;fontSize=20;rounded=1;" parent="1" vertex="1">
          <mxGeometry x="-557.76" y="299.67" width="82" height="82" as="geometry" />
        </mxCell>
        <mxCell id="8aHG0Ycmiw9dC2gy8iPI-45" style="edgeStyle=orthogonalEdgeStyle;rounded=1;hachureGap=4;orthogonalLoop=1;jettySize=auto;html=1;exitX=1;exitY=0.5;exitDx=0;exitDy=0;entryX=0;entryY=0.5;entryDx=0;entryDy=0;fontFamily=Architects Daughter;fontSource=https%3A%2F%2Ffonts.googleapis.com%2Fcss%3Ffamily%3DArchitects%2BDaughter;fontSize=16;" parent="1" source="8aHG0Ycmiw9dC2gy8iPI-48" target="8aHG0Ycmiw9dC2gy8iPI-47" edge="1">
          <mxGeometry relative="1" as="geometry" />
        </mxCell>
        <mxCell id="8aHG0Ycmiw9dC2gy8iPI-46" style="edgeStyle=orthogonalEdgeStyle;rounded=0;orthogonalLoop=1;jettySize=auto;html=1;" parent="1" source="8aHG0Ycmiw9dC2gy8iPI-47" target="8aHG0Ycmiw9dC2gy8iPI-130" edge="1">
          <mxGeometry relative="1" as="geometry" />
        </mxCell>
        <mxCell id="8aHG0Ycmiw9dC2gy8iPI-47" value="Browser" style="swimlane;whiteSpace=wrap;html=1;hachureGap=4;fontFamily=Architects Daughter;fontSource=https%3A%2F%2Ffonts.googleapis.com%2Fcss%3Ffamily%3DArchitects%2BDaughter;fontSize=20;fillColor=#ffe6cc;strokeColor=#d79b00;rounded=1;" parent="1" vertex="1">
          <mxGeometry x="-300" y="377.42" width="120" height="95" as="geometry" />
        </mxCell>
        <mxCell id="8aHG0Ycmiw9dC2gy8iPI-48" value="" style="shape=image;html=1;verticalAlign=top;verticalLabelPosition=bottom;labelBackgroundColor=#FFB570;imageAspect=0;aspect=fixed;image=https://cdn3.iconfinder.com/data/icons/picons-social/57/50-html5-128.png;hachureGap=4;fontFamily=Architects Daughter;fontSource=https%3A%2F%2Ffonts.googleapis.com%2Fcss%3Ffamily%3DArchitects%2BDaughter;fontSize=20;fontColor=#E84B13;rounded=1;" parent="1" vertex="1">
          <mxGeometry x="-528.76" y="471.17" width="79" height="79" as="geometry" />
        </mxCell>
        <mxCell id="8aHG0Ycmiw9dC2gy8iPI-49" style="edgeStyle=orthogonalEdgeStyle;rounded=1;hachureGap=4;orthogonalLoop=1;jettySize=auto;html=1;fontFamily=Architects Daughter;fontSource=https%3A%2F%2Ffonts.googleapis.com%2Fcss%3Ffamily%3DArchitects%2BDaughter;fontSize=16;" parent="1" source="8aHG0Ycmiw9dC2gy8iPI-50" edge="1">
          <mxGeometry relative="1" as="geometry">
            <mxPoint x="-299" y="408.5579310344828" as="targetPoint" />
          </mxGeometry>
        </mxCell>
        <mxCell id="8aHG0Ycmiw9dC2gy8iPI-50" value="" style="shape=image;verticalLabelPosition=bottom;labelBackgroundColor=default;verticalAlign=top;aspect=fixed;imageAspect=0;image=data:image/svg+xml,PHN2ZyB4bWxucz0iaHR0cDovL3d3dy53My5vcmcvMjAwMC9zdmciIHZpZXdCb3g9IjAgMCAxMjQgMTQxLjUzIiB3aWR0aD0iMjE4MyIgaGVpZ2h0PSIyNTAwIiBmaWxsPSJub25lIj48cGF0aCBmaWxsPSIjMWI3M2JhIiBkPSJNMTAuMzgzIDEyNi44OTJMMCAwbDEyNCAuMjU1LTEwLjk3OSAxMjYuNjM3LTUwLjU1MyAxNC42Mzh6Ii8+PHBhdGggZmlsbD0iIzFjODhjNyIgZD0iTTYyLjQ2OCAxMjkuMjc1VjEyLjA4NWw1MS4wNjQuMTctOS4xMDYgMTA0Ljg1eiIvPjxwYXRoIGZpbGw9IiNmZmYiIGQ9Ik0xMDAuODUxIDI3LjA2NEgyMi4yOThsMi4xMjggMTUuMzE4aDM3LjI3NmwtMzYuNjggMTUuNzQ1IDIuMTI3IDE0LjgwOGg1NC4wNDNsLTEuOTU4IDIwLjY4LTE4LjI5OCAzLjU3NS0xNi41OTUtNC4yNTUtMS4yNzctMTEuNzQ1SDI3LjgzbDIuMDQyIDI0LjQyNiAzMi42ODEgOS4xMDYgMzEuMzItOS45NTcgNC00Ny43NDVINjQuNzY1bDM2LjA4NS0xNC45Nzh6Ii8+PC9zdmc+;rounded=1;" parent="1" vertex="1">
          <mxGeometry x="-528.76" y="389.04" width="57" height="65.27" as="geometry" />
        </mxCell>
        <mxCell id="8aHG0Ycmiw9dC2gy8iPI-51" style="edgeStyle=orthogonalEdgeStyle;rounded=1;hachureGap=4;orthogonalLoop=1;jettySize=auto;html=1;entryX=-0.032;entryY=0.11;entryDx=0;entryDy=0;entryPerimeter=0;fontFamily=Architects Daughter;fontSource=https%3A%2F%2Ffonts.googleapis.com%2Fcss%3Ffamily%3DArchitects%2BDaughter;fontSize=16;" parent="1" source="8aHG0Ycmiw9dC2gy8iPI-44" target="8aHG0Ycmiw9dC2gy8iPI-47" edge="1">
          <mxGeometry relative="1" as="geometry" />
        </mxCell>
        <mxCell id="8aHG0Ycmiw9dC2gy8iPI-52" value="" style="edgeStyle=orthogonalEdgeStyle;rounded=1;hachureGap=4;orthogonalLoop=1;jettySize=auto;html=1;fontFamily=Architects Daughter;fontSource=https%3A%2F%2Ffonts.googleapis.com%2Fcss%3Ffamily%3DArchitects%2BDaughter;fontSize=16;entryX=0.5;entryY=1;entryDx=0;entryDy=0;" parent="1" source="8aHG0Ycmiw9dC2gy8iPI-53" target="8aHG0Ycmiw9dC2gy8iPI-56" edge="1">
          <mxGeometry relative="1" as="geometry">
            <mxPoint x="-1085.62" y="399.09" as="targetPoint" />
          </mxGeometry>
        </mxCell>
        <mxCell id="8aHG0Ycmiw9dC2gy8iPI-53" value="Babel&lt;br&gt;Compilation" style="whiteSpace=wrap;html=1;fontSize=19;verticalAlign=top;labelBackgroundColor=default;hachureGap=4;fontFamily=Architects Daughter;fontSource=https%3A%2F%2Ffonts.googleapis.com%2Fcss%3Ffamily%3DArchitects%2BDaughter;rounded=1;" parent="1" vertex="1">
          <mxGeometry x="-1146.62" y="459.09" width="120" height="60" as="geometry" />
        </mxCell>
        <mxCell id="8aHG0Ycmiw9dC2gy8iPI-54" value="" style="edgeStyle=orthogonalEdgeStyle;rounded=1;hachureGap=4;orthogonalLoop=1;jettySize=auto;html=1;fontFamily=Architects Daughter;fontSource=https%3A%2F%2Ffonts.googleapis.com%2Fcss%3Ffamily%3DArchitects%2BDaughter;fontSize=16;" parent="1" source="8aHG0Ycmiw9dC2gy8iPI-27" target="8aHG0Ycmiw9dC2gy8iPI-53" edge="1">
          <mxGeometry relative="1" as="geometry" />
        </mxCell>
        <mxCell id="8aHG0Ycmiw9dC2gy8iPI-55" style="edgeStyle=orthogonalEdgeStyle;rounded=1;hachureGap=4;orthogonalLoop=1;jettySize=auto;html=1;fontFamily=Architects Daughter;fontSource=https%3A%2F%2Ffonts.googleapis.com%2Fcss%3Ffamily%3DArchitects%2BDaughter;fontSize=16;" parent="1" source="8aHG0Ycmiw9dC2gy8iPI-56" target="8aHG0Ycmiw9dC2gy8iPI-42" edge="1">
          <mxGeometry relative="1" as="geometry" />
        </mxCell>
        <mxCell id="8aHG0Ycmiw9dC2gy8iPI-56" value="Deploy" style="ellipse;whiteSpace=wrap;html=1;hachureGap=4;fontFamily=Architects Daughter;fontSource=https%3A%2F%2Ffonts.googleapis.com%2Fcss%3Ffamily%3DArchitects%2BDaughter;fontSize=20;rounded=1;fillColor=#f5f5f5;strokeColor=#666666;fontColor=#333333;" parent="1" vertex="1">
          <mxGeometry x="-1121.12" y="363.09" width="69" height="46" as="geometry" />
        </mxCell>
        <mxCell id="8aHG0Ycmiw9dC2gy8iPI-57" style="edgeStyle=orthogonalEdgeStyle;rounded=1;hachureGap=4;orthogonalLoop=1;jettySize=auto;html=1;fontFamily=Architects Daughter;fontSource=https%3A%2F%2Ffonts.googleapis.com%2Fcss%3Ffamily%3DArchitects%2BDaughter;fontSize=16;" parent="1" source="8aHG0Ycmiw9dC2gy8iPI-58" edge="1">
          <mxGeometry relative="1" as="geometry">
            <mxPoint x="-301.705882352941" y="441.3023529411766" as="targetPoint" />
            <Array as="points">
              <mxPoint x="-431" y="599.42" />
              <mxPoint x="-431" y="553.42" />
              <mxPoint x="-349" y="553.42" />
              <mxPoint x="-349" y="441.42" />
            </Array>
          </mxGeometry>
        </mxCell>
        <mxCell id="8aHG0Ycmiw9dC2gy8iPI-58" value="" style="shape=image;html=1;verticalAlign=top;verticalLabelPosition=bottom;labelBackgroundColor=#ffffff;imageAspect=0;aspect=fixed;image=https://cdn4.iconfinder.com/data/icons/48-bubbles/48/18.Pictures-Day-128.png;hachureGap=4;fontFamily=Architects Daughter;fontSource=https%3A%2F%2Ffonts.googleapis.com%2Fcss%3Ffamily%3DArchitects%2BDaughter;fontSize=20;rounded=1;" parent="1" vertex="1">
          <mxGeometry x="-528.76" y="556.42" width="87" height="87" as="geometry" />
        </mxCell>
        <mxCell id="8aHG0Ycmiw9dC2gy8iPI-59" style="edgeStyle=orthogonalEdgeStyle;rounded=1;hachureGap=4;orthogonalLoop=1;jettySize=auto;html=1;fontFamily=Architects Daughter;fontSource=https%3A%2F%2Ffonts.googleapis.com%2Fcss%3Ffamily%3DArchitects%2BDaughter;fontSize=16;entryX=0;entryY=0.5;entryDx=0;entryDy=0;" parent="1" source="8aHG0Ycmiw9dC2gy8iPI-42" target="8aHG0Ycmiw9dC2gy8iPI-58" edge="1">
          <mxGeometry relative="1" as="geometry">
            <Array as="points">
              <mxPoint x="-970" y="235.42" />
              <mxPoint x="-970" y="599.42" />
            </Array>
          </mxGeometry>
        </mxCell>
        <mxCell id="8aHG0Ycmiw9dC2gy8iPI-60" value="Static&lt;br style=&quot;border-color: var(--border-color);&quot;&gt;Assets / CDN" style="shape=callout;whiteSpace=wrap;html=1;perimeter=calloutPerimeter;hachureGap=4;fontFamily=Architects Daughter;fontSource=https%3A%2F%2Ffonts.googleapis.com%2Fcss%3Ffamily%3DArchitects%2BDaughter;fontSize=20;position2=1;fillColor=#fff2cc;strokeColor=#d6b656;base=31;size=30;position=0.58;flipV=1;rounded=1;" parent="1" vertex="1">
          <mxGeometry x="-1290" y="247.42" width="154" height="102.67" as="geometry" />
        </mxCell>
        <mxCell id="8aHG0Ycmiw9dC2gy8iPI-61" style="edgeStyle=orthogonalEdgeStyle;rounded=1;hachureGap=4;orthogonalLoop=1;jettySize=auto;html=1;fontFamily=Architects Daughter;fontSource=https%3A%2F%2Ffonts.googleapis.com%2Fcss%3Ffamily%3DArchitects%2BDaughter;fontSize=16;" parent="1" source="8aHG0Ycmiw9dC2gy8iPI-30" target="8aHG0Ycmiw9dC2gy8iPI-47" edge="1">
          <mxGeometry relative="1" as="geometry" />
        </mxCell>
        <mxCell id="8aHG0Ycmiw9dC2gy8iPI-65" value="" style="group;rounded=1;" parent="1" connectable="0" vertex="1">
          <mxGeometry x="1090" y="-204.42000000000002" width="750" height="360.37" as="geometry" />
        </mxCell>
        <mxCell id="8aHG0Ycmiw9dC2gy8iPI-66" value="" style="group;rounded=1;" parent="8aHG0Ycmiw9dC2gy8iPI-65" connectable="0" vertex="1">
          <mxGeometry x="-10" y="-109.63" width="750" height="352.37" as="geometry" />
        </mxCell>
        <mxCell id="8aHG0Ycmiw9dC2gy8iPI-67" style="edgeStyle=orthogonalEdgeStyle;rounded=1;hachureGap=4;orthogonalLoop=1;jettySize=auto;html=1;exitX=0.25;exitY=1;exitDx=0;exitDy=0;fontFamily=Architects Daughter;fontSource=https%3A%2F%2Ffonts.googleapis.com%2Fcss%3Ffamily%3DArchitects%2BDaughter;fontSize=16;" parent="8aHG0Ycmiw9dC2gy8iPI-66" source="8aHG0Ycmiw9dC2gy8iPI-68" target="8aHG0Ycmiw9dC2gy8iPI-75" edge="1">
          <mxGeometry relative="1" as="geometry">
            <Array as="points">
              <mxPoint x="188" y="324" />
              <mxPoint x="150" y="324" />
            </Array>
          </mxGeometry>
        </mxCell>
        <mxCell id="8aHG0Ycmiw9dC2gy8iPI-68" value="" style="rounded=1;whiteSpace=wrap;html=1;hachureGap=4;fontFamily=Architects Daughter;fontSource=https%3A%2F%2Ffonts.googleapis.com%2Fcss%3Ffamily%3DArchitects%2BDaughter;fontSize=20;arcSize=2;fillColor=#dae8fc;strokeColor=#6c8ebf;movable=1;resizable=1;rotatable=1;deletable=1;editable=1;locked=0;connectable=1;" parent="8aHG0Ycmiw9dC2gy8iPI-66" vertex="1">
          <mxGeometry y="40.370000000000005" width="750" height="312" as="geometry" />
        </mxCell>
        <mxCell id="8aHG0Ycmiw9dC2gy8iPI-69" value="" style="endArrow=none;html=1;rounded=1;hachureGap=4;fontFamily=Architects Daughter;fontSource=https%3A%2F%2Ffonts.googleapis.com%2Fcss%3Ffamily%3DArchitects%2BDaughter;fontSize=16;fillColor=#f8cecc;strokeColor=#b85450;" parent="8aHG0Ycmiw9dC2gy8iPI-66" edge="1">
          <mxGeometry width="50" height="50" relative="1" as="geometry">
            <mxPoint x="180" y="17" as="sourcePoint" />
            <mxPoint x="537" y="34.36576239476153" as="targetPoint" />
          </mxGeometry>
        </mxCell>
        <mxCell id="8aHG0Ycmiw9dC2gy8iPI-70" value="Payment Processing flow" style="text;html=1;strokeColor=#6c8ebf;fillColor=#dae8fc;align=center;verticalAlign=middle;whiteSpace=wrap;rounded=1;fontSize=20;fontFamily=Architects Daughter;fontStyle=1;" parent="8aHG0Ycmiw9dC2gy8iPI-66" vertex="1">
          <mxGeometry x="180" width="355" height="20" as="geometry" />
        </mxCell>
        <mxCell id="8aHG0Ycmiw9dC2gy8iPI-71" value="&lt;p style=&quot;line-height: 80%;&quot;&gt;&lt;span style=&quot;font-size: 15px;&quot;&gt;&lt;b&gt;REST&lt;br&gt;API&lt;/b&gt;&lt;/span&gt;&lt;/p&gt;" style="rhombus;whiteSpace=wrap;html=1;fontSize=20;fontFamily=Architects Daughter;rounded=1;hachureGap=4;fontSource=https%3A%2F%2Ffonts.googleapis.com%2Fcss%3Ffamily%3DArchitects%2BDaughter;fillColor=#dae8fc;strokeColor=#6c8ebf;" parent="8aHG0Ycmiw9dC2gy8iPI-66" vertex="1">
          <mxGeometry x="300" y="166.13" width="80" height="80" as="geometry" />
        </mxCell>
        <mxCell id="8aHG0Ycmiw9dC2gy8iPI-72" style="edgeStyle=orthogonalEdgeStyle;rounded=1;hachureGap=4;orthogonalLoop=1;jettySize=auto;html=1;entryX=0;entryY=0.5;entryDx=0;entryDy=0;fontFamily=Architects Daughter;fontSource=https%3A%2F%2Ffonts.googleapis.com%2Fcss%3Ffamily%3DArchitects%2BDaughter;fontSize=16;" parent="8aHG0Ycmiw9dC2gy8iPI-66" source="8aHG0Ycmiw9dC2gy8iPI-73" target="8aHG0Ycmiw9dC2gy8iPI-71" edge="1">
          <mxGeometry relative="1" as="geometry" />
        </mxCell>
        <mxCell id="8aHG0Ycmiw9dC2gy8iPI-73" value="SDKs" style="whiteSpace=wrap;html=1;fontSize=20;fontFamily=Architects Daughter;rounded=1;hachureGap=4;fontSource=https%3A%2F%2Ffonts.googleapis.com%2Fcss%3Ffamily%3DArchitects%2BDaughter;" parent="8aHG0Ycmiw9dC2gy8iPI-66" vertex="1">
          <mxGeometry x="100" y="106.87" width="150" height="40" as="geometry" />
        </mxCell>
        <mxCell id="8aHG0Ycmiw9dC2gy8iPI-74" style="edgeStyle=orthogonalEdgeStyle;rounded=1;hachureGap=4;orthogonalLoop=1;jettySize=auto;html=1;exitX=1;exitY=0.5;exitDx=0;exitDy=0;fontFamily=Architects Daughter;fontSource=https%3A%2F%2Ffonts.googleapis.com%2Fcss%3Ffamily%3DArchitects%2BDaughter;fontSize=16;entryX=0;entryY=0.5;entryDx=0;entryDy=0;" parent="8aHG0Ycmiw9dC2gy8iPI-66" source="8aHG0Ycmiw9dC2gy8iPI-71" edge="1">
          <mxGeometry relative="1" as="geometry">
            <mxPoint x="436.71000000000004" y="163.36500000000007" as="targetPoint" />
          </mxGeometry>
        </mxCell>
        <mxCell id="8aHG0Ycmiw9dC2gy8iPI-75" value="Request" style="shape=parallelogram;perimeter=parallelogramPerimeter;whiteSpace=wrap;html=1;fixedSize=1;hachureGap=4;fontFamily=Architects Daughter;fontSource=https%3A%2F%2Ffonts.googleapis.com%2Fcss%3Ffamily%3DArchitects%2BDaughter;fontSize=20;rounded=1;" parent="8aHG0Ycmiw9dC2gy8iPI-66" vertex="1">
          <mxGeometry x="90" y="227.37" width="120" height="60" as="geometry" />
        </mxCell>
        <mxCell id="8aHG0Ycmiw9dC2gy8iPI-76" style="edgeStyle=orthogonalEdgeStyle;rounded=1;hachureGap=4;orthogonalLoop=1;jettySize=auto;html=1;entryX=0.533;entryY=1.088;entryDx=0;entryDy=0;entryPerimeter=0;fontFamily=Architects Daughter;fontSource=https%3A%2F%2Ffonts.googleapis.com%2Fcss%3Ffamily%3DArchitects%2BDaughter;fontSize=16;" parent="8aHG0Ycmiw9dC2gy8iPI-66" source="8aHG0Ycmiw9dC2gy8iPI-75" target="8aHG0Ycmiw9dC2gy8iPI-73" edge="1">
          <mxGeometry relative="1" as="geometry" />
        </mxCell>
        <mxCell id="8aHG0Ycmiw9dC2gy8iPI-77" value="Process" style="ellipse;shape=cloud;whiteSpace=wrap;html=1;hachureGap=4;fontFamily=Architects Daughter;fontSource=https%3A%2F%2Ffonts.googleapis.com%2Fcss%3Ffamily%3DArchitects%2BDaughter;fontSize=20;rounded=1;" parent="8aHG0Ycmiw9dC2gy8iPI-66" vertex="1">
          <mxGeometry x="600" y="156.13" width="120" height="80" as="geometry" />
        </mxCell>
        <mxCell id="8aHG0Ycmiw9dC2gy8iPI-78" style="edgeStyle=orthogonalEdgeStyle;rounded=1;hachureGap=4;orthogonalLoop=1;jettySize=auto;html=1;entryX=0.209;entryY=0.252;entryDx=0;entryDy=0;entryPerimeter=0;fontFamily=Architects Daughter;fontSource=https%3A%2F%2Ffonts.googleapis.com%2Fcss%3Ffamily%3DArchitects%2BDaughter;fontSize=16;" parent="8aHG0Ycmiw9dC2gy8iPI-66" target="8aHG0Ycmiw9dC2gy8iPI-77" edge="1">
          <mxGeometry relative="1" as="geometry">
            <mxPoint x="570" y="159.49444444444435" as="sourcePoint" />
          </mxGeometry>
        </mxCell>
        <mxCell id="8aHG0Ycmiw9dC2gy8iPI-79" value="JSON Response" style="ellipse;whiteSpace=wrap;html=1;hachureGap=4;fontFamily=Architects Daughter;fontSource=https%3A%2F%2Ffonts.googleapis.com%2Fcss%3Ffamily%3DArchitects%2BDaughter;fontSize=20;rounded=1;" parent="8aHG0Ycmiw9dC2gy8iPI-66" vertex="1">
          <mxGeometry x="450" y="236.13" width="120" height="80" as="geometry" />
        </mxCell>
        <mxCell id="8aHG0Ycmiw9dC2gy8iPI-80" style="edgeStyle=orthogonalEdgeStyle;rounded=1;hachureGap=4;orthogonalLoop=1;jettySize=auto;html=1;fontFamily=Architects Daughter;fontSource=https%3A%2F%2Ffonts.googleapis.com%2Fcss%3Ffamily%3DArchitects%2BDaughter;fontSize=16;" parent="8aHG0Ycmiw9dC2gy8iPI-66" source="8aHG0Ycmiw9dC2gy8iPI-77" target="8aHG0Ycmiw9dC2gy8iPI-79" edge="1">
          <mxGeometry relative="1" as="geometry" />
        </mxCell>
        <mxCell id="8aHG0Ycmiw9dC2gy8iPI-81" style="edgeStyle=orthogonalEdgeStyle;rounded=1;hachureGap=4;orthogonalLoop=1;jettySize=auto;html=1;fontFamily=Architects Daughter;fontSource=https%3A%2F%2Ffonts.googleapis.com%2Fcss%3Ffamily%3DArchitects%2BDaughter;fontSize=16;" parent="8aHG0Ycmiw9dC2gy8iPI-66" source="8aHG0Ycmiw9dC2gy8iPI-79" edge="1">
          <mxGeometry relative="1" as="geometry">
            <mxPoint x="440" y="350" as="targetPoint" />
          </mxGeometry>
        </mxCell>
        <mxCell id="8aHG0Ycmiw9dC2gy8iPI-164" value="" style="shape=image;verticalLabelPosition=bottom;labelBackgroundColor=default;verticalAlign=top;aspect=fixed;imageAspect=0;image=data:image/png,iVBORw0KGgoAAAANSUhEUgAAAUYAAACbCAMAAAAp3sKHAAAAh1BMVEX///9ncuVeauRkb+VaZ+Po6vrO0fbx8v1WY+JgbORYZeNjbuSCi+lbaOO8wfJfa+Td3/jh4/mHj+rV1/apr++jqe6Zn+yPl+pTYOLCxvPx8vzW2Pf7+/7JzPVsduV+h+h5gudxe+a6vvKzuPCvtPCMlOqco+11f+dveeZPXeKUm+tHVuFJWOFgY3MiAAAJ4klEQVR4nO2diZaiOBRABYKEYMQFKcAFd6uc+f/vGwEXyAuIVBB7+t1z+pwuiiXc7BvV6yEIgiAIgiAIgiAIgiAIgiAIgiAIgiAIgrSENd0P+l0H4s9mNPxaucSlqLEhi3E4W1OqO9oFghqb0PcGGuG2oV1BjU2wgodB1NgYS9c01PhrUKMSUGOexWg7GTW5EDXeGC+PsUv1ADU2JervY5tnzRWCGpsw3n2tKMs1+FBjEybMKb4/amzCl6O1oNH5WaoO6GejXKPhEqr5w0h1QD8blRoNm7HNYTdfqA7k56NII3c4DWKvb/6FChMUafz2w7HqoP1JiBrZtOsQ/ZGgRiWgRiWgxlpYo93xa3DabDbrwfm474+FBh3QWL+KMafD7XJkNQrWeOtPTptTfPamtVuY0WjnH9aXqwbn2dJs9NhmjL2TzXTbMQxDu/xzHJcQ4zTr51olokZjPXgQb9NzToM8p/S9I2/FGeec6cfkp3hQZD1PrzSLx9dZbW55K8KdNEyXENmTOh3HRRg7TL++iWMTfeW9x+QiPIkzJNq1kRxM7r0MUWOi+w730nOC/DGDJv28MHCv5zuHy48WMYpcJ1jN4nGSREt0DOziE9nqWdfRnFFdfBX759CocfYayxWROLyFnLNryIHGQkgzjRQcPLL7j85Xr3xowiwed/xLBNi2BiBxZdLyuOSay+3YueXWfjRhsgfnAj7MTpyUuy7RaJx6Xu7mr2jUtJ5PNRnGT1j6LiPblV6TBJC0WiOahjT6cvDGGjVtRHI/vKTRmYgn3mGzknfZVSYIum3P4pxVyUn5jcYCr6XGiqeRL+m7HCuffvHotWXRepKhEzrSWBmko8wieXYZ3bVjcbF6mhY/UqPGYAad1UgRLS27mtUJ+ydq1MC0ZFjD4sVjG2PEZlDn0R+p0fguNmDMWhY1I25B46GqJXjnIzVqvFhfnGqUTgmsvLXUFPBGJQH+SI1akM+fQ173MqJc47besz9UY9LPuRFJ2r6OThiH2c1V3uo5QC+GziilJBmjuB+rpdFtSaPh2Lasu5+E6zFi5IGLnZ+v7XQe+hQKVtwrXMAnkMlwPh6Ppsv9YW3fFkiUarT1B7RaYzJmZLyu0eXrL283G9jSX97T1QJUlcS/yZqJrUmiuHSMwDu7+W6nNfc2gWuUayRL64EZlWs0SHD68s9xMHhNo0FvI1zRnkpSpHsL6la8lubGgfqCY9WV9VxsI7igkW/uN8wp08jm8J4SjQY53E5McmF9jXqcq0RMSefwPvwuVtPF6ngppMdA7eijeHuNygblpod/yjRKhkygRndTnE6trdEpdpwj6PFWyYxZ5ZViHQBTy69YihV1yazA+KqrkUb3IJxRWyMVEs0YdplX2W88oZCnwmyF0Msw1q95egLQ6Mg6/A+aaDQG4hn1NYqLAvagfUayU1bCM8WYEzO9o7RH2AfRyytH5Jpo5KBabK6xB3K1nt49EuoQ+Mx9cTBXVqg3x4QFGT1UFL+NNA7FM2prhEUMqJCz7CPmKgL8z4sJRldaOC4k43MOP5RGVecaQV8la7vMhMMwzwoJxjm/5OkZ0m6JweyZvKrpXCMMsJs0smPxKLguKt5bcR0DMskVm21kM7vdaxyC8jPR+C2GfyZyFE5wlfYHo9JpNMOmK7AKtnuNY/H2STVkgeEHW0Q8g6rtVlcOfnP7WGx/da+xJ/adk0lTs/YY2R2xSfpbqqbfLrFKj/lo+wCNYgj5UpJEn/PC6qNaiN0oEdfJtcE+QKNYmyRNxPnTCUEAUz2zJQ5/wCc+GgcfoFFc/5LcHvYinsKV7yGZ8ieTGPrplrE/QONZ1BhK+rTPUa+xZ66ejN7b6+uZ79YouT3QOPwUjZceJ6lexaNf8/W7NUoKMDEISWr8iEydvpm4jFAg6EvfoYPUKI7PJj4+oYq5Enla5ZKotHj8AI1gXmXarMGjdIgnz2IZpxMvUrJZoEHnGsHUVdKLMV9PjdJhflVYuw2TZ+5sJKV7jSD/JktyLBBmQqth/7S8Fnw849J6L12h0L3GvWiM9ZJVccJBuz9+wqj17YqLoawBRJKqrXuNayEExkZ2FA7bdsIWltn2vvcBGsEgRDYF6AuNSbWD280ZgdImDa+oUbYmvVWN4jD3dd1EKFxpTFQLaUgoFuVpHSNqhIqUagTfoICrPLKIBKs0Fc/nP8MvTf1gnvTUgxptyXysSo1iVwOuxnSzAVEx0sXp/pbxqb6XT9mK42fp7IWoUTLp0abGIRjUSyO3BwtHGAOtcnk8t8+Spqg485vN2gONHKZmhRo1rTD4PoVDo9c1lb0++BUp76ZswWKA35LGokMdbyy0o45i9KarZeBEIgOxrlKjQXNjxjtJly+4tmwWkl/Jy6vRLCDKK6BbZnDpt798NLYsH7yRmyynkOwZZNe0bPXP+/Q/SlOjxk67NFhReJL1Cla3e4Iq/PLgTSikjah/3FC7hXo8V6Y4OiGbg7fb7Y8bBnXRJJOAPkRyHeHf65XLOJEvE/2dRs1w2SU0NgN7UtN735fKgEJIS9cNx/vlyIxMc9TfehODZV9Wa1Vj+mDHdt38auWcxiRmy8ZH0wtK1n7/UmMl9qN6PEvHAgyb0yAI0kXY97dqXWM5WQsi+ql6p7drtGcVNy2nQ43XYc5NxZDk+zUG+bJvV3smoTuN2QhAdVjfrpEU6+K624s61BhcW2Gy3Sc33q3x1vS+UfvyzjS6974V3H5y590aQb95WnMuoSuNxuZRCJXnnDdrpLC7F9bz2JFGI7cZqjcvXWTxXo3Sffphrf243Wi0vws929Iof6tGJt/3N3JrvFALGp99rOMS4IHQpdqVRHkLGktXXwZlK/2t+Pmual35juqd/WQBj27D/XVL+YS2eo36Vr4sxtUqpkeHTnWidnVf/f7+RTgJpN3VBINzTzaDZp5kUU6yPoXKSYRxb0bhStpgVjmtt9jbpd9mcqjmtfQh3SicOMlXwASFDufrYVl4l6vi6MXlbP26E+RfXuQH5D8rIMIpFSvKzAPJR/PlOcenEwSLMNZlL0Q0v91P/I2GfuxQyoju2q7OWaCv/ervzM39DWW6697PvkXySAR8JW8BTsmuLVmYZ+5jQvnlUZcHaYewXmKylv7aDRhPQ5jsEHfi8/At066LaNwPt7vdbrucWzVmwxfRfFj/7BqUr29cjJKADaevPWhhzbP3Cfvj6O/5GnGtZaLIM1CjElCjElCjElCjElCjElCjElCjElCjElCjElCjElCjElCjElCjEgoaDZsHwWfsy/jDuGk0HJ1o8WzZ7K+i/PUkGg2XBafjUFz8i9THDLg2+Sv/8KBSov57d7MgCIIgCIIgCIIgCIIgCIIgCIIgCIIgCPJ/5D/Pv7j4/FfgCwAAAABJRU5ErkJggg==;" parent="8aHG0Ycmiw9dC2gy8iPI-66" vertex="1">
          <mxGeometry x="440" y="110" width="130" height="61.81" as="geometry" />
        </mxCell>
        <mxCell id="8aHG0Ycmiw9dC2gy8iPI-85" value="Nutshell: Website Flow (Frontend)" style="text;html=1;strokeColor=#6c8ebf;fillColor=#dae8fc;align=center;verticalAlign=middle;whiteSpace=wrap;rounded=1;fontSize=20;fontFamily=Architects Daughter;fontStyle=1;" parent="1" vertex="1">
          <mxGeometry x="-1010" y="147.42000000000004" width="355" height="20" as="geometry" />
        </mxCell>
        <mxCell id="8aHG0Ycmiw9dC2gy8iPI-86" style="edgeStyle=orthogonalEdgeStyle;rounded=1;hachureGap=4;orthogonalLoop=1;jettySize=auto;html=1;fontFamily=Architects Daughter;fontSource=https%3A%2F%2Ffonts.googleapis.com%2Fcss%3Ffamily%3DArchitects%2BDaughter;fontSize=16;startArrow=classic;startFill=1;" parent="1" source="8aHG0Ycmiw9dC2gy8iPI-12" target="8aHG0Ycmiw9dC2gy8iPI-68" edge="1">
          <mxGeometry relative="1" as="geometry">
            <mxPoint x="1453" y="130" as="targetPoint" />
          </mxGeometry>
        </mxCell>
        <mxCell id="8aHG0Ycmiw9dC2gy8iPI-87" value="&lt;h1 style=&quot;border-color: var(--border-color); text-align: left;&quot;&gt;Closed API Implementation&lt;/h1&gt;" style="rounded=1;whiteSpace=wrap;html=1;hachureGap=4;fontFamily=Architects Daughter;fontSource=https%3A%2F%2Ffonts.googleapis.com%2Fcss%3Ffamily%3DArchitects%2BDaughter;fontSize=20;fillColor=#f8cecc;strokeColor=#b85450;" parent="1" vertex="1">
          <mxGeometry x="1050" y="457.59000000000003" width="537" height="63" as="geometry" />
        </mxCell>
        <mxCell id="8aHG0Ycmiw9dC2gy8iPI-93" value="Serves through Cloudflare" style="text;html=1;strokeColor=none;fillColor=none;align=center;verticalAlign=middle;whiteSpace=wrap;rounded=1;fontSize=22;fontFamily=Architects Daughter;fontStyle=1;" parent="1" vertex="1">
          <mxGeometry x="-1019.5" y="197.41999999999996" width="320" height="27" as="geometry" />
        </mxCell>
        <mxCell id="8aHG0Ycmiw9dC2gy8iPI-94" value="" style="group;rounded=1;" parent="1" connectable="0" vertex="1">
          <mxGeometry x="-1160" y="-461.42" width="675.12" height="580" as="geometry" />
        </mxCell>
        <mxCell id="8aHG0Ycmiw9dC2gy8iPI-95" value="" style="group;rounded=1;" parent="8aHG0Ycmiw9dC2gy8iPI-94" connectable="0" vertex="1">
          <mxGeometry width="675.12" height="580" as="geometry" />
        </mxCell>
        <mxCell id="8aHG0Ycmiw9dC2gy8iPI-96" value="&lt;h1&gt;&lt;u&gt;Stack info&amp;nbsp;&lt;/u&gt;&lt;/h1&gt;&lt;p style=&quot;font-size: 24px;&quot;&gt;&lt;b&gt;Arch: M&lt;/b&gt;onolithic&lt;b&gt;&lt;br&gt;Frontend: React (Redux) / TailwindCSS / Bootstrap&lt;br&gt;Backend: NodeJS&lt;br&gt;Cache: Redis&lt;br&gt;API Engine: Rest API&lt;br&gt;&lt;/b&gt;&lt;b style=&quot;background-color: initial;&quot;&gt;Framework: Fastify / Express&lt;/b&gt;&lt;/p&gt;&lt;b style=&quot;border-color: var(--border-color); font-size: 24px;&quot;&gt;Payment Gateways:&amp;nbsp;&lt;/b&gt;&lt;b&gt;Stripe&lt;/b&gt;&lt;b style=&quot;border-color: var(--border-color); font-size: 24px;&quot;&gt;&lt;br style=&quot;border-color: var(--border-color);&quot;&gt;Validators: JSON Schema&lt;br style=&quot;border-color: var(--border-color);&quot;&gt;Test Suite: Jest&lt;br style=&quot;border-color: var(--border-color);&quot;&gt;Database: MongoDB&amp;nbsp;&lt;/b&gt;" style="text;html=1;strokeColor=#d79b00;fillColor=#ffe6cc;spacing=20;spacingTop=-27;whiteSpace=wrap;overflow=hidden;rounded=1;fontSize=20;fontFamily=Architects Daughter;arcSize=13;container=0;" parent="8aHG0Ycmiw9dC2gy8iPI-95" vertex="1">
          <mxGeometry y="64.96000000000002" width="640" height="515.04" as="geometry" />
        </mxCell>
        <mxCell id="8aHG0Ycmiw9dC2gy8iPI-97" value="" style="verticalLabelPosition=bottom;verticalAlign=top;html=1;shape=mxgraph.basic.pie;startAngle=0.2;endAngle=0.9;hachureGap=4;fontFamily=Architects Daughter;fontSource=https%3A%2F%2Ffonts.googleapis.com%2Fcss%3Ffamily%3DArchitects%2BDaughter;fontSize=20;fillColor=#f8cecc;strokeColor=#b85450;container=0;rounded=1;" parent="8aHG0Ycmiw9dC2gy8iPI-95" vertex="1">
          <mxGeometry x="575.12" width="100.00000000000003" height="116.00000000000001" as="geometry" />
        </mxCell>
        <mxCell id="8aHG0Ycmiw9dC2gy8iPI-98" value="&lt;font data-font-src=&quot;https://fonts.googleapis.com/css?family=Architects+Daughter&quot; face=&quot;Architects Daughter&quot; style=&quot;font-size: 18px;&quot;&gt;LoadBalanccer&lt;/font&gt;" style="text;html=1;strokeColor=#9673a6;fillColor=#e1d5e7;align=center;verticalAlign=middle;whiteSpace=wrap;rounded=0;" parent="1" vertex="1">
          <mxGeometry x="360" y="446.67" width="138.5" height="30" as="geometry" />
        </mxCell>
        <mxCell id="8aHG0Ycmiw9dC2gy8iPI-99" style="edgeStyle=orthogonalEdgeStyle;rounded=1;orthogonalLoop=1;jettySize=auto;html=1;entryX=1;entryY=0.5;entryDx=0;entryDy=0;" parent="1" source="8aHG0Ycmiw9dC2gy8iPI-103" target="8aHG0Ycmiw9dC2gy8iPI-12" edge="1">
          <mxGeometry relative="1" as="geometry" />
        </mxCell>
        <mxCell id="8aHG0Ycmiw9dC2gy8iPI-100" value="" style="edgeStyle=orthogonalEdgeStyle;rounded=1;orthogonalLoop=1;jettySize=auto;html=1;" parent="1" source="8aHG0Ycmiw9dC2gy8iPI-103" target="8aHG0Ycmiw9dC2gy8iPI-104" edge="1">
          <mxGeometry relative="1" as="geometry" />
        </mxCell>
        <mxCell id="8aHG0Ycmiw9dC2gy8iPI-101" value="" style="edgeStyle=orthogonalEdgeStyle;rounded=1;orthogonalLoop=1;jettySize=auto;html=1;entryX=0;entryY=0.5;entryDx=0;entryDy=0;" parent="1" source="8aHG0Ycmiw9dC2gy8iPI-103" target="8aHG0Ycmiw9dC2gy8iPI-105" edge="1">
          <mxGeometry relative="1" as="geometry">
            <mxPoint x="1960" y="203" as="targetPoint" />
          </mxGeometry>
        </mxCell>
        <mxCell id="8aHG0Ycmiw9dC2gy8iPI-102" style="edgeStyle=orthogonalEdgeStyle;rounded=1;orthogonalLoop=1;jettySize=auto;html=1;entryX=0;entryY=0.75;entryDx=0;entryDy=0;" parent="1" source="8aHG0Ycmiw9dC2gy8iPI-103" target="8aHG0Ycmiw9dC2gy8iPI-106" edge="1">
          <mxGeometry relative="1" as="geometry" />
        </mxCell>
        <mxCell id="8aHG0Ycmiw9dC2gy8iPI-103" value="&lt;font style=&quot;font-size: 20px;&quot; data-font-src=&quot;https://fonts.googleapis.com/css?family=Architects+Daughter&quot; face=&quot;Architects Daughter&quot;&gt;Payment modules&lt;/font&gt;" style="rounded=1;whiteSpace=wrap;html=1;glass=0;dashed=1;dashPattern=8 8;" parent="1" vertex="1">
          <mxGeometry x="1620" y="165" width="260" height="76" as="geometry" />
        </mxCell>
        <mxCell id="8aHG0Ycmiw9dC2gy8iPI-104" value="&lt;font style=&quot;font-size: 20px;&quot; data-font-src=&quot;https://fonts.googleapis.com/css?family=Architects+Daughter&quot; face=&quot;Architects Daughter&quot;&gt;Developer APIs&amp;nbsp;&lt;/font&gt;" style="rounded=1;whiteSpace=wrap;html=1;glass=0;dashed=1;dashPattern=8 8;" parent="1" vertex="1">
          <mxGeometry x="1880" y="83.58" width="188.16" height="55" as="geometry" />
        </mxCell>
        <mxCell id="8aHG0Ycmiw9dC2gy8iPI-105" value="&lt;font style=&quot;font-size: 20px;&quot; data-font-src=&quot;https://fonts.googleapis.com/css?family=Architects+Daughter&quot; face=&quot;Architects Daughter&quot;&gt;Predesigned Templates&lt;/font&gt;" style="rounded=1;whiteSpace=wrap;html=1;glass=0;dashed=1;dashPattern=8 8;" parent="1" vertex="1">
          <mxGeometry x="2010" y="160" width="188.16" height="55" as="geometry" />
        </mxCell>
        <mxCell id="8aHG0Ycmiw9dC2gy8iPI-106" value="&lt;font style=&quot;font-size: 20px;&quot; data-font-src=&quot;https://fonts.googleapis.com/css?family=Architects+Daughter&quot; face=&quot;Architects Daughter&quot;&gt;Subscriptions&lt;/font&gt;" style="rounded=1;whiteSpace=wrap;html=1;glass=0;dashed=1;dashPattern=8 8;" parent="1" vertex="1">
          <mxGeometry x="1980" y="230" width="188.16" height="55" as="geometry" />
        </mxCell>
        <mxCell id="8aHG0Ycmiw9dC2gy8iPI-107" value="" style="edgeStyle=orthogonalEdgeStyle;rounded=1;hachureGap=4;orthogonalLoop=1;jettySize=auto;html=1;fontFamily=Architects Daughter;fontSource=https%3A%2F%2Ffonts.googleapis.com%2Fcss%3Ffamily%3DArchitects%2BDaughter;fontSize=16;" parent="1" source="8aHG0Ycmiw9dC2gy8iPI-4" target="8aHG0Ycmiw9dC2gy8iPI-109" edge="1">
          <mxGeometry relative="1" as="geometry">
            <mxPoint x="740" y="360" as="targetPoint" />
            <mxPoint x="360" y="375" as="sourcePoint" />
          </mxGeometry>
        </mxCell>
        <mxCell id="8aHG0Ycmiw9dC2gy8iPI-109" value="&lt;b&gt;&lt;font style=&quot;font-size: 25px;&quot;&gt;Fastify / Express&lt;/font&gt;&lt;/b&gt;" style="whiteSpace=wrap;html=1;fontSize=20;fontFamily=Architects Daughter;verticalAlign=top;hachureGap=4;fontSource=https%3A%2F%2Ffonts.googleapis.com%2Fcss%3Ffamily%3DArchitects%2BDaughter;fillColor=#1ba1e2;fontColor=#ffffff;strokeColor=#006EAF;rounded=1;glass=0;" parent="1" vertex="1">
          <mxGeometry x="710" y="374.26" width="299" height="50" as="geometry" />
        </mxCell>
        <mxCell id="8aHG0Ycmiw9dC2gy8iPI-110" value="" style="edgeStyle=orthogonalEdgeStyle;rounded=0;orthogonalLoop=1;jettySize=auto;html=1;" parent="1" source="8aHG0Ycmiw9dC2gy8iPI-111" target="8aHG0Ycmiw9dC2gy8iPI-113" edge="1">
          <mxGeometry relative="1" as="geometry" />
        </mxCell>
        <mxCell id="8aHG0Ycmiw9dC2gy8iPI-111" value="" style="points=[[0,0,0],[0.25,0,0],[0.5,0,0],[0.75,0,0],[1,0,0],[0,1,0],[0.25,1,0],[0.5,1,0],[0.75,1,0],[1,1,0],[0,0.25,0],[0,0.5,0],[0,0.75,0],[1,0.25,0],[1,0.5,0],[1,0.75,0]];outlineConnect=0;fontColor=#232F3E;gradientColor=#945DF2;gradientDirection=north;fillColor=#5A30B5;strokeColor=#ffffff;dashed=0;verticalLabelPosition=bottom;verticalAlign=top;align=center;html=1;fontSize=12;fontStyle=0;aspect=fixed;shape=mxgraph.aws4.resourceIcon;resIcon=mxgraph.aws4.route_53;rounded=0;" parent="1" vertex="1">
          <mxGeometry x="190" y="-210.41999999999996" width="58" height="58" as="geometry" />
        </mxCell>
        <mxCell id="8aHG0Ycmiw9dC2gy8iPI-112" style="edgeStyle=orthogonalEdgeStyle;rounded=0;orthogonalLoop=1;jettySize=auto;html=1;" parent="1" source="8aHG0Ycmiw9dC2gy8iPI-113" target="8aHG0Ycmiw9dC2gy8iPI-115" edge="1">
          <mxGeometry relative="1" as="geometry" />
        </mxCell>
        <mxCell id="8aHG0Ycmiw9dC2gy8iPI-113" value="" style="points=[[0,0,0],[0.25,0,0],[0.5,0,0],[0.75,0,0],[1,0,0],[0,1,0],[0.25,1,0],[0.5,1,0],[0.75,1,0],[1,1,0],[0,0.25,0],[0,0.5,0],[0,0.75,0],[1,0.25,0],[1,0.5,0],[1,0.75,0]];outlineConnect=0;fontColor=#232F3E;gradientColor=#945DF2;gradientDirection=north;fillColor=#5A30B5;strokeColor=#ffffff;dashed=0;verticalLabelPosition=bottom;verticalAlign=top;align=center;html=1;fontSize=12;fontStyle=0;aspect=fixed;shape=mxgraph.aws4.resourceIcon;resIcon=mxgraph.aws4.global_accelerator;rounded=0;" parent="1" vertex="1">
          <mxGeometry x="302" y="-210.42000000000002" width="58" height="58" as="geometry" />
        </mxCell>
        <mxCell id="8aHG0Ycmiw9dC2gy8iPI-114" style="edgeStyle=orthogonalEdgeStyle;rounded=0;orthogonalLoop=1;jettySize=auto;html=1;entryX=0.5;entryY=0;entryDx=0;entryDy=0;entryPerimeter=0;" parent="1" source="8aHG0Ycmiw9dC2gy8iPI-115" target="8aHG0Ycmiw9dC2gy8iPI-119" edge="1">
          <mxGeometry relative="1" as="geometry" />
        </mxCell>
        <mxCell id="8aHG0Ycmiw9dC2gy8iPI-115" value="" style="sketch=0;outlineConnect=0;fontColor=#232F3E;gradientColor=none;fillColor=#4D27AA;strokeColor=none;dashed=0;verticalLabelPosition=bottom;verticalAlign=top;align=center;html=1;fontSize=12;fontStyle=0;aspect=fixed;pointerEvents=1;shape=mxgraph.aws4.application_load_balancer;" parent="1" vertex="1">
          <mxGeometry x="432" y="-210.42000000000002" width="58" height="58" as="geometry" />
        </mxCell>
        <mxCell id="8aHG0Ycmiw9dC2gy8iPI-116" value="AWS Global accelrator" style="rounded=0;whiteSpace=wrap;html=1;strokeColor=none;fillColor=none;" parent="1" vertex="1">
          <mxGeometry x="291" y="-130" width="80" height="31" as="geometry" />
        </mxCell>
        <mxCell id="8aHG0Ycmiw9dC2gy8iPI-117" value="Route53" style="rounded=0;whiteSpace=wrap;html=1;fillColor=none;strokeColor=none;" parent="1" vertex="1">
          <mxGeometry x="179" y="-139.99999999999994" width="80" height="31.75" as="geometry" />
        </mxCell>
        <mxCell id="8aHG0Ycmiw9dC2gy8iPI-118" value="Region" style="points=[[0,0],[0.25,0],[0.5,0],[0.75,0],[1,0],[1,0.25],[1,0.5],[1,0.75],[1,1],[0.75,1],[0.5,1],[0.25,1],[0,1],[0,0.75],[0,0.5],[0,0.25]];outlineConnect=0;gradientColor=none;html=1;whiteSpace=wrap;fontSize=12;fontStyle=0;container=1;pointerEvents=0;collapsible=0;recursiveResize=0;shape=mxgraph.aws4.group;grIcon=mxgraph.aws4.group_region;strokeColor=#147EBA;fillColor=none;verticalAlign=top;align=left;spacingLeft=30;fontColor=#147EBA;dashed=1;rounded=0;" parent="1" vertex="1">
          <mxGeometry x="636" y="-301.42" width="210" height="240" as="geometry" />
        </mxCell>
        <mxCell id="8aHG0Ycmiw9dC2gy8iPI-119" value="" style="points=[[0,0,0],[0.25,0,0],[0.5,0,0],[0.75,0,0],[1,0,0],[0,1,0],[0.25,1,0],[0.5,1,0],[0.75,1,0],[1,1,0],[0,0.25,0],[0,0.5,0],[0,0.75,0],[1,0.25,0],[1,0.5,0],[1,0.75,0]];outlineConnect=0;fontColor=#232F3E;gradientColor=#F78E04;gradientDirection=north;fillColor=#D05C17;strokeColor=#ffffff;dashed=0;verticalLabelPosition=bottom;verticalAlign=top;align=center;html=1;fontSize=12;fontStyle=0;aspect=fixed;shape=mxgraph.aws4.resourceIcon;resIcon=mxgraph.aws4.eks_anywhere;rounded=0;" parent="8aHG0Ycmiw9dC2gy8iPI-118" vertex="1">
          <mxGeometry x="62" y="110" width="58" height="58" as="geometry" />
        </mxCell>
        <mxCell id="8aHG0Ycmiw9dC2gy8iPI-120" value="EKS" style="rounded=0;whiteSpace=wrap;html=1;strokeColor=none;fillColor=none;" parent="8aHG0Ycmiw9dC2gy8iPI-118" vertex="1">
          <mxGeometry x="71" y="168" width="40" height="24.5" as="geometry" />
        </mxCell>
        <mxCell id="8aHG0Ycmiw9dC2gy8iPI-121" value="" style="sketch=0;points=[[0,0,0],[0.25,0,0],[0.5,0,0],[0.75,0,0],[1,0,0],[0,1,0],[0.25,1,0],[0.5,1,0],[0.75,1,0],[1,1,0],[0,0.25,0],[0,0.5,0],[0,0.75,0],[1,0.25,0],[1,0.5,0],[1,0.75,0]];outlineConnect=0;fontColor=#232F3E;gradientColor=#4D72F3;gradientDirection=north;fillColor=#3334B9;strokeColor=#ffffff;dashed=0;verticalLabelPosition=bottom;verticalAlign=top;align=center;html=1;fontSize=12;fontStyle=0;aspect=fixed;shape=mxgraph.aws4.resourceIcon;resIcon=mxgraph.aws4.database;" parent="1" vertex="1">
          <mxGeometry x="512" y="-119.42" width="58" height="58" as="geometry" />
        </mxCell>
        <mxCell id="8aHG0Ycmiw9dC2gy8iPI-122" value="AWS RDS&amp;nbsp;" style="rounded=0;whiteSpace=wrap;html=1;strokeColor=none;" parent="1" vertex="1">
          <mxGeometry x="506" y="-61.42" width="70" height="24.5" as="geometry" />
        </mxCell>
        <mxCell id="8aHG0Ycmiw9dC2gy8iPI-123" style="edgeStyle=orthogonalEdgeStyle;rounded=0;orthogonalLoop=1;jettySize=auto;html=1;entryX=0.75;entryY=0;entryDx=0;entryDy=0;entryPerimeter=0;" parent="1" source="8aHG0Ycmiw9dC2gy8iPI-119" target="8aHG0Ycmiw9dC2gy8iPI-121" edge="1">
          <mxGeometry relative="1" as="geometry" />
        </mxCell>
        <mxCell id="8aHG0Ycmiw9dC2gy8iPI-124" value="Load Balancer" style="rounded=0;whiteSpace=wrap;html=1;strokeColor=none;fillColor=none;" parent="1" vertex="1">
          <mxGeometry x="430.5" y="-250" width="70" height="34.5" as="geometry" />
        </mxCell>
        <mxCell id="8aHG0Ycmiw9dC2gy8iPI-125" value="" style="shape=image;verticalLabelPosition=bottom;labelBackgroundColor=default;verticalAlign=top;aspect=fixed;imageAspect=0;image=data:image/webp,UklGRq4JAABXRUJQVlA4WAoAAAAYAAAA/wAA/wAAQUxQSKUFAAAB8IT/n3K3tW39qmp4JlJAbk1m5hk0TGbmGeakGc+WZytMk+dshmkyMzNDmDmSwkyGgDLeqvp9G0LPZ7yuyYqICdCiQ5I0vmbd6b+f3NDZZqvfdrdh8venr1szLikFbeGQpLEPfuEWmvTWL354XEphiyTpacdNA+Rcqmdv/Xl2LTkD3HT806W0dCFo5ccfgpKrjU1D2tg1F9j4yZUKYYmStO/tkKtt06C2XTPcsb+UlmSgiW9AV7FpVpvawTcnNFiCgXaapBRsmtamZKZ3VlpU0rtm6IxN49q4Y+bdSosY6MOQsWlgmwwfUVrQQO+Cgk0T2xR4twYLSNpphoJNI9sUZnZSmidoYoqMTTPbZKYmFOb7Bh02DW3T8Y15kvYj26apbWf2U5IUtPJ2CqaxTeH2lQpS0ifoMM1tOj6upKCnbaC6xVzZ8DSFpOPJmAY3meOUNH4T1TS5K9Nj0ocobjUXPih9gWwa3ZkvaPxWartVbhlfA243w+qPkk2zO7PudDIN33Ha7yluNxd+N0ltucqNGzANbx7qWm/o1jOm6Y1xyxmz7P9l/2Pccsb/FHC72Xhz6206j2K3ml34+5F02G1m03HEk+6nYLeYTeH+J+oAyDZuLWNnc4Ci1kPtcoN3FdYrKujtl9Hol79DQVJUePvHv/i15v7Cx98eFDU7qtmj5o2DGJo7DqL+h2AaxNDccZDmi2r2OEdUeMfHv/i15v7ix98RFSUFveMKGv3Kdygoaj3ULjd4V+FjijoAZxvT2MbO5gA96QEKNg1uU7j/SUfSYdPkNh1HnEexaXS7cN5mbJrdZpNbz8Y0/D8FWPb/sv+X/f/fgI1bzrj9ME1vhtjtZvP4DdSWq1x/Oh1uNdNx2ips3GbGZnedwtDY7WXjISdLg1/irlQ3dy2d+VVSUDqZZj9loKAgrTrlsvs3Nff9l528SgqSQpTS9js09/ZJikFzxqQmT1H/QzCmvoxhqWLq4biAkNSnMS5BSOrpFOaI0tiqPfbtx73f+iQpLSpKY6v22Ld391g1JkVJSTuedAv9ufGbOyksImnHk26hl285cUJJSTtNAbUvDV6nsKCknaaA2sPA9M5KevEGhtU92sE6pQVEvXgDw+perkM2vFg6nyE2fWlTqK9SnE86nyE2PWwz5DztS7ZNf9p0fHMBSfuSbdPLtjP7/JiM6VPbbHySwlxB3yNjetpkfnQ3Nv1qm7cqzqVtpqimt23uLv2DK3srzbPDBtxvBdO7ruy7kE2YPjfGLWfcfvTwVkVPL/tv2X//Y8TY+F95GEzLmTKD2+6Re9uucseVVLebKxf9hNJwZL79ebqGc8cJh1JarrLHKwt2q9k89qwnTFKbjcJ50hnkVrMzJ0jvp9qthneRxm+mtpkp/EVK+hTZbjJnDlUKesEMTWYqk2OSos4m4xbLHK406/mPUe3WMoUrB5qddBIdrWW78G6lWUHbXkfBTWXT8QVFzZn0BmzcVGSmJxTmUtIxdLbbyVS8VkkL/Q4ddiuZWjlMSQsMWvE3OuwmsqmFYxS14KgdL6EzbiCbWvmUghaZNPE3uordOjYZjtHilLTi21Cwe2GPBWz/ANU9YuMOH6YQtPgoHQVdxR5xNqxSnCddRukPG0pheq2iljRIr7sGOtseZXbl5m01b9IpdLgfbFwzfGFCSUudtM2Jj0Kutj2qbIacoDRP1Cps3APGLhmufLeUtPRJet4Zj0HN1bNHj42HTO6gMI+iTmFo7JFmbJcMTB0+UAzakiFJz/vENEDpSrWNPTqMnTMbdlLU/EGDX+GuGnsU2di15q4C/PWQMSlpS8ckjb371Oszc5tRaoDzXqykhQalkwHMiDZzP3beibtKSvpHDEnSipcf/NkfXnbXowV7dJhy94/2kZIWHqTdT7v+cexRZFMeueOib5+wx7MkKWkpAQBWUDggIAMAAPAnAJ0BKgABAAE+bTSXR6QjIiEskKhAgA2JTdwt5B875/uH4q7e/0v8QPxyrM+qB/K/YB4i3Si8wH6c/rd71XoA83T+q9Zn6AHlo/sB8OPkq6tDgZ3cWv/dkl81qUibVqtjtUsdP9s4Fng0wBkfUTyfdjd2K/kZtzvEBRzRNq1Wx2rBXD/twcAFTl+spzEWIauCtf+x9g46ZHz9irONI8pcZzlIm1arY5whKvSchoFespzEWIauCtgOr/3G1jcZzlIm0fSSUcF7LXcyoqpRIC6+MyV+AGuFnlHljt8Xth1gOsB1gOpaZrUpE2rVbHaqxHoWNxFiGkv3fxXrOdBeRjrKbe7/rFHGWB+b9JW40RKC3ZkdOZBpZbRJa9rovj7ZOzKtLR5lHym6WXwi+e/aqWn1F46NBaPyR2OG9o1cFbhXnDjqA6wJzagA/v8yNANH6oNz3J3AEHpE9Je5o2jQA0c9HfsQ9onsda1TH9s/oldXWm6KtUAvu2s/1CQl9Gs7Ozs7Ozs7Oz2/oFJIN8Tb4OLreXmEAipl6RdlEUjPH3+dT6M1WWDp0Xa/TipAN65tkhTYJHjxhpUlY0Qp/h9+jKOT//MAAAAA7QE2MX4wfFOMjPu0DXSYLpLiXC4xCMy+gT+Pqk7g4ODg4ODg4ODg81tdDzCg9i3AyfpQsRUmDAyGgu2RELuA6YEhIwAABqd7y+yf09DFDieHCl3BbyikxPO+nhjKjaf2lSFJd7xsivgLmVo1hqFsjXX4DwRtvMrUqL+zj/Q+nWTonfoqfx2/WsDiMt7X8ynf/ctH9ku1y+QC7FtHIHrbkKMW2DUmOMSCAdP5jKz44QdSdP/Yd0PcI/6EGAsCe5GV0M2AMedhiiTINSzqPJ1picHfnOigL0okvUohkiHmWYGF4LPeNPDZlDL/rhkTUuP4bkrv65Po2MmZ0ipgsbE/sRRs6q+pDBS9G5uKFCoRmpwGTolElRVlWlHqnHYPz1P7BKErCz5wb49TkZzqVizV0SxB9Gtnwfvx/uK0EKES+4SS7J1RjqoyD/gEIbjDZGUM4/TOWH5AkAAARVhJRroAAABFeGlmAABJSSoACAAAAAYAEgEDAAEAAAABAAAAGgEFAAEAAABWAAAAGwEFAAEAAABeAAAAKAEDAAEAAAACAAAAEwIDAAEAAAABAAAAaYcEAAEAAABmAAAAAAAAAEgAAAABAAAASAAAAAEAAAAGAACQBwAEAAAAMDIxMAGRBwAEAAAAAQIDAACgBwAEAAAAMDEwMAGgAwABAAAA//8AAAKgBAABAAAAAAEAAAOgBAABAAAAAAEAAAAAAAA=;" parent="1" vertex="1">
          <mxGeometry x="441" y="3.33" width="86" height="86" as="geometry" />
        </mxCell>
        <mxCell id="8aHG0Ycmiw9dC2gy8iPI-126" value="ELK stack for monitoring" style="rounded=0;whiteSpace=wrap;html=1;strokeColor=none;fillColor=none;" parent="1" vertex="1">
          <mxGeometry x="441" y="93.33" width="90" height="45.25" as="geometry" />
        </mxCell>
        <mxCell id="8aHG0Ycmiw9dC2gy8iPI-127" style="edgeStyle=orthogonalEdgeStyle;rounded=0;orthogonalLoop=1;jettySize=auto;html=1;entryX=1;entryY=0.5;entryDx=0;entryDy=0;" parent="1" source="8aHG0Ycmiw9dC2gy8iPI-119" target="8aHG0Ycmiw9dC2gy8iPI-125" edge="1">
          <mxGeometry relative="1" as="geometry" />
        </mxCell>
        <mxCell id="8aHG0Ycmiw9dC2gy8iPI-128" style="edgeStyle=orthogonalEdgeStyle;rounded=1;orthogonalLoop=1;jettySize=auto;html=1;entryX=0.03;entryY=0.955;entryDx=0;entryDy=0;entryPerimeter=0;exitX=0.5;exitY=0;exitDx=0;exitDy=0;curved=0;" parent="1" source="8aHG0Ycmiw9dC2gy8iPI-10" target="8aHG0Ycmiw9dC2gy8iPI-109" edge="1">
          <mxGeometry relative="1" as="geometry">
            <Array as="points">
              <mxPoint x="719" y="600" />
            </Array>
          </mxGeometry>
        </mxCell>
        <mxCell id="8aHG0Ycmiw9dC2gy8iPI-129" style="edgeStyle=orthogonalEdgeStyle;rounded=0;orthogonalLoop=1;jettySize=auto;html=1;" parent="1" source="8aHG0Ycmiw9dC2gy8iPI-130" target="8aHG0Ycmiw9dC2gy8iPI-132" edge="1">
          <mxGeometry relative="1" as="geometry" />
        </mxCell>
        <mxCell id="8aHG0Ycmiw9dC2gy8iPI-130" value="LDAP adapter&lt;br&gt;(Lightweight Directory Access Protocol)" style="rounded=1;whiteSpace=wrap;html=1;" parent="1" vertex="1">
          <mxGeometry x="-90" y="367.50000000000006" width="190" height="97" as="geometry" />
        </mxCell>
        <mxCell id="8aHG0Ycmiw9dC2gy8iPI-131" value="Post/Get" style="text;html=1;strokeColor=none;fillColor=none;align=center;verticalAlign=middle;whiteSpace=wrap;rounded=0;" parent="1" vertex="1">
          <mxGeometry x="160" y="364.89" width="60" height="30" as="geometry" />
        </mxCell>
        <mxCell id="8aHG0Ycmiw9dC2gy8iPI-132" value="KeyStore" style="shape=cylinder3;whiteSpace=wrap;html=1;boundedLbl=1;backgroundOutline=1;size=15;" parent="1" vertex="1">
          <mxGeometry x="-40" y="606.78" width="90" height="80" as="geometry" />
        </mxCell>
        <mxCell id="8aHG0Ycmiw9dC2gy8iPI-133" value="" style="points=[[0,0.5,0],[0.24,0,0],[0.5,0.28,0],[0.995,0.475,0],[0.5,0.72,0],[0.24,1,0]];verticalLabelPosition=bottom;sketch=0;html=1;verticalAlign=top;aspect=fixed;align=center;pointerEvents=1;shape=mxgraph.cisco19.key;fillColor=#005073;strokeColor=none;" parent="1" vertex="1">
          <mxGeometry x="110" y="634.28" width="50" height="22.5" as="geometry" />
        </mxCell>
        <mxCell id="8aHG0Ycmiw9dC2gy8iPI-134" value="Key" style="text;html=1;strokeColor=none;fillColor=none;align=center;verticalAlign=middle;whiteSpace=wrap;rounded=0;" parent="1" vertex="1">
          <mxGeometry x="94" y="656.78" width="60" height="30" as="geometry" />
        </mxCell>
        <mxCell id="8aHG0Ycmiw9dC2gy8iPI-135" value="Private" style="text;html=1;strokeColor=none;fillColor=none;align=center;verticalAlign=middle;whiteSpace=wrap;rounded=0;" parent="1" vertex="1">
          <mxGeometry x="100" y="604.78" width="60" height="30" as="geometry" />
        </mxCell>
        <mxCell id="8aHG0Ycmiw9dC2gy8iPI-136" style="edgeStyle=orthogonalEdgeStyle;rounded=0;orthogonalLoop=1;jettySize=auto;html=1;entryX=0.006;entryY=0.435;entryDx=0;entryDy=0;entryPerimeter=0;" parent="1" source="8aHG0Ycmiw9dC2gy8iPI-132" edge="1">
          <mxGeometry relative="1" as="geometry">
            <mxPoint x="95" y="646.78" as="targetPoint" />
          </mxGeometry>
        </mxCell>
        <mxCell id="8aHG0Ycmiw9dC2gy8iPI-137" value="" style="rounded=1;whiteSpace=wrap;html=1;" parent="1" vertex="1">
          <mxGeometry x="-60" y="223.00000000000003" width="80" height="60" as="geometry" />
        </mxCell>
        <mxCell id="8aHG0Ycmiw9dC2gy8iPI-138" value="Response" style="text;html=1;strokeColor=none;fillColor=none;align=center;verticalAlign=middle;whiteSpace=wrap;rounded=0;" parent="1" vertex="1">
          <mxGeometry x="154" y="432.9999999999999" width="60" height="30" as="geometry" />
        </mxCell>
        <mxCell id="8aHG0Ycmiw9dC2gy8iPI-139" value="" style="verticalLabelPosition=bottom;html=1;verticalAlign=top;align=center;strokeColor=none;fillColor=#00BEF2;shape=mxgraph.azure.user;" parent="1" vertex="1">
          <mxGeometry x="-30" y="231.78" width="17.5" height="20" as="geometry" />
        </mxCell>
        <mxCell id="8aHG0Ycmiw9dC2gy8iPI-140" value="Hacker" style="text;html=1;strokeColor=none;fillColor=none;align=center;verticalAlign=middle;whiteSpace=wrap;rounded=0;" parent="1" vertex="1">
          <mxGeometry x="-51.25" y="251.78" width="60" height="30" as="geometry" />
        </mxCell>
        <mxCell id="8aHG0Ycmiw9dC2gy8iPI-141" value="man-in-middle attack:&lt;br&gt;Cannot break seccured. channnel" style="text;html=1;strokeColor=none;fillColor=none;align=center;verticalAlign=middle;whiteSpace=wrap;rounded=0;" parent="1" vertex="1">
          <mxGeometry x="-125" y="294.45000000000005" width="210" height="30" as="geometry" />
        </mxCell>
        <mxCell id="8aHG0Ycmiw9dC2gy8iPI-142" style="edgeStyle=orthogonalEdgeStyle;rounded=0;orthogonalLoop=1;jettySize=auto;html=1;" parent="1" source="8aHG0Ycmiw9dC2gy8iPI-137" edge="1">
          <mxGeometry relative="1" as="geometry">
            <mxPoint x="140" y="380" as="targetPoint" />
          </mxGeometry>
        </mxCell>
        <mxCell id="8aHG0Ycmiw9dC2gy8iPI-143" value="TrustStorer" style="shape=cylinder3;whiteSpace=wrap;html=1;boundedLbl=1;backgroundOutline=1;size=15;" parent="1" vertex="1">
          <mxGeometry x="-187.59000000000003" y="654.78" width="90" height="80" as="geometry" />
        </mxCell>
        <mxCell id="8aHG0Ycmiw9dC2gy8iPI-144" style="edgeStyle=orthogonalEdgeStyle;rounded=0;orthogonalLoop=1;jettySize=auto;html=1;entryX=0.5;entryY=0;entryDx=0;entryDy=0;entryPerimeter=0;" parent="1" source="8aHG0Ycmiw9dC2gy8iPI-143" target="8aHG0Ycmiw9dC2gy8iPI-146" edge="1">
          <mxGeometry relative="1" as="geometry" />
        </mxCell>
        <mxCell id="8aHG0Ycmiw9dC2gy8iPI-145" style="edgeStyle=orthogonalEdgeStyle;rounded=0;orthogonalLoop=1;jettySize=auto;html=1;" parent="1" source="8aHG0Ycmiw9dC2gy8iPI-130" target="8aHG0Ycmiw9dC2gy8iPI-143" edge="1">
          <mxGeometry relative="1" as="geometry">
            <Array as="points">
              <mxPoint x="-50" y="695" />
            </Array>
          </mxGeometry>
        </mxCell>
        <mxCell id="8aHG0Ycmiw9dC2gy8iPI-146" value="Trusted CA certificates" style="points=[[0.015,0.015,0],[0.25,0,0],[0.5,0,0],[0.75,0,0],[0.985,0.015,0],[1,0.22,0],[1,0.44,0],[1,0.67,0],[0.985,0.89,0],[0,0.22,0],[0,0.44,0],[0,0.67,0],[0.015,0.89,0],[0.25,0.91,0],[0.5,0.91,0],[0.785,0.955,0]];verticalLabelPosition=bottom;sketch=0;html=1;verticalAlign=top;aspect=fixed;align=center;pointerEvents=1;shape=mxgraph.cisco19.x509_certificate;fillColor=#005073;strokeColor=none;" parent="1" vertex="1">
          <mxGeometry x="-190" y="786.78" width="94.81" height="90.07" as="geometry" />
        </mxCell>
        <mxCell id="8aHG0Ycmiw9dC2gy8iPI-147" style="edgeStyle=orthogonalEdgeStyle;rounded=0;orthogonalLoop=1;jettySize=auto;html=1;entryX=1;entryY=0.325;entryDx=0;entryDy=0;entryPerimeter=0;" parent="1" source="8aHG0Ycmiw9dC2gy8iPI-7" target="8aHG0Ycmiw9dC2gy8iPI-130" edge="1">
          <mxGeometry relative="1" as="geometry">
            <Array as="points">
              <mxPoint x="280" y="410" />
              <mxPoint x="280" y="410" />
            </Array>
          </mxGeometry>
        </mxCell>
        <mxCell id="8aHG0Ycmiw9dC2gy8iPI-148" value="" style="endArrow=none;dashed=1;html=1;rounded=0;exitX=1;exitY=0.25;exitDx=0;exitDy=0;entryX=0.023;entryY=0.396;entryDx=0;entryDy=0;entryPerimeter=0;" parent="1" source="8aHG0Ycmiw9dC2gy8iPI-130" target="8aHG0Ycmiw9dC2gy8iPI-7" edge="1">
          <mxGeometry width="50" height="50" relative="1" as="geometry">
            <mxPoint x="70" y="436.8869999999996" as="sourcePoint" />
            <mxPoint x="270.48" y="433.61" as="targetPoint" />
          </mxGeometry>
        </mxCell>
        <mxCell id="8aHG0Ycmiw9dC2gy8iPI-149" value="" style="endArrow=none;dashed=1;html=1;rounded=0;exitX=1.007;exitY=0.69;exitDx=0;exitDy=0;exitPerimeter=0;entryX=0.219;entryY=0.991;entryDx=0;entryDy=0;entryPerimeter=0;" parent="1" source="8aHG0Ycmiw9dC2gy8iPI-130" target="8aHG0Ycmiw9dC2gy8iPI-7" edge="1">
          <mxGeometry width="50" height="50" relative="1" as="geometry">
            <mxPoint x="112" y="405" as="sourcePoint" />
            <mxPoint x="398" y="402" as="targetPoint" />
          </mxGeometry>
        </mxCell>
        <mxCell id="8aHG0Ycmiw9dC2gy8iPI-150" style="edgeStyle=orthogonalEdgeStyle;rounded=0;orthogonalLoop=1;jettySize=auto;html=1;entryX=0.125;entryY=0.75;entryDx=0;entryDy=0;entryPerimeter=0;" parent="1" source="8aHG0Ycmiw9dC2gy8iPI-130" target="8aHG0Ycmiw9dC2gy8iPI-7" edge="1">
          <mxGeometry relative="1" as="geometry" />
        </mxCell>
        <mxCell id="8aHG0Ycmiw9dC2gy8iPI-151" value="&lt;span style=&quot;color: rgb(0, 0, 0); font-family: Helvetica; font-size: 12px; font-style: normal; font-variant-ligatures: normal; font-variant-caps: normal; font-weight: 400; letter-spacing: normal; orphans: 2; text-align: center; text-indent: 0px; text-transform: none; widows: 2; word-spacing: 0px; -webkit-text-stroke-width: 0px; background-color: rgb(251, 251, 251); text-decoration-thickness: initial; text-decoration-style: initial; text-decoration-color: initial; float: none; display: inline !important;&quot;&gt;SSL communication channel&lt;/span&gt;" style="text;whiteSpace=wrap;html=1;" parent="1" vertex="1">
          <mxGeometry x="130" y="460" width="190" height="40" as="geometry" />
        </mxCell>
        <mxCell id="8aHG0Ycmiw9dC2gy8iPI-152" style="edgeStyle=orthogonalEdgeStyle;rounded=0;orthogonalLoop=1;jettySize=auto;html=1;entryX=0;entryY=0.5;entryDx=0;entryDy=0;" parent="1" source="8aHG0Ycmiw9dC2gy8iPI-153" target="8aHG0Ycmiw9dC2gy8iPI-31" edge="1">
          <mxGeometry relative="1" as="geometry" />
        </mxCell>
        <mxCell id="8aHG0Ycmiw9dC2gy8iPI-153" value="SuperAdmin" style="verticalLabelPosition=bottom;html=1;fillColor=#A153A0;verticalAlign=top;align=center;pointerEvents=1;shape=mxgraph.cisco_safe.design.actor_2;hachureGap=4;fontFamily=Architects Daughter;fontSource=https%3A%2F%2Ffonts.googleapis.com%2Fcss%3Ffamily%3DArchitects%2BDaughter;fontSize=20;rounded=1;" parent="1" vertex="1">
          <mxGeometry x="-660" y="734.52" width="49" height="128.95" as="geometry" />
        </mxCell>
        <mxCell id="8aHG0Ycmiw9dC2gy8iPI-154" style="edgeStyle=orthogonalEdgeStyle;rounded=0;orthogonalLoop=1;jettySize=auto;html=1;entryX=0;entryY=1;entryDx=0;entryDy=0;" parent="1" source="8aHG0Ycmiw9dC2gy8iPI-31" target="8aHG0Ycmiw9dC2gy8iPI-47" edge="1">
          <mxGeometry relative="1" as="geometry" />
        </mxCell>
        <mxCell id="8aHG0Ycmiw9dC2gy8iPI-165" value="" style="rounded=1;whiteSpace=wrap;html=1;fillColor=#fff2cc;strokeColor=#d6b656;" parent="1" vertex="1">
          <mxGeometry x="-330" y="1080" width="730" height="560" as="geometry" />
        </mxCell>
        <mxCell id="8aHG0Ycmiw9dC2gy8iPI-166" value="" style="sketch=0;pointerEvents=1;shadow=0;dashed=0;html=1;strokeColor=none;fillColor=#505050;labelPosition=center;verticalLabelPosition=bottom;verticalAlign=top;outlineConnect=0;align=center;shape=mxgraph.office.servers.certificate_authority;" parent="1" vertex="1">
          <mxGeometry x="70" y="1345.5" width="46" height="59" as="geometry" />
        </mxCell>
        <mxCell id="8aHG0Ycmiw9dC2gy8iPI-167" value="" style="endArrow=classic;html=1;rounded=0;" parent="1" edge="1">
          <mxGeometry width="50" height="50" relative="1" as="geometry">
            <mxPoint x="-200" y="1240" as="sourcePoint" />
            <mxPoint x="-200" y="1460" as="targetPoint" />
          </mxGeometry>
        </mxCell>
        <mxCell id="8aHG0Ycmiw9dC2gy8iPI-168" value="1" style="edgeLabel;html=1;align=center;verticalAlign=middle;resizable=0;points=[];" parent="8aHG0Ycmiw9dC2gy8iPI-167" vertex="1" connectable="0">
          <mxGeometry x="0.0335" y="-3" relative="1" as="geometry">
            <mxPoint as="offset" />
          </mxGeometry>
        </mxCell>
        <mxCell id="8aHG0Ycmiw9dC2gy8iPI-169" value="7" style="endArrow=classic;html=1;rounded=0;" parent="1" edge="1">
          <mxGeometry width="50" height="50" relative="1" as="geometry">
            <mxPoint x="-130" y="1176" as="sourcePoint" />
            <mxPoint x="110" y="1176" as="targetPoint" />
          </mxGeometry>
        </mxCell>
        <mxCell id="8aHG0Ycmiw9dC2gy8iPI-170" value="" style="endArrow=classic;html=1;rounded=0;" parent="1" target="8aHG0Ycmiw9dC2gy8iPI-166" edge="1">
          <mxGeometry width="50" height="50" relative="1" as="geometry">
            <mxPoint x="-130" y="1239.13" as="sourcePoint" />
            <mxPoint x="-80" y="1189.13" as="targetPoint" />
            <Array as="points">
              <mxPoint x="93" y="1240" />
            </Array>
          </mxGeometry>
        </mxCell>
        <mxCell id="8aHG0Ycmiw9dC2gy8iPI-171" value="5" style="edgeLabel;html=1;align=center;verticalAlign=middle;resizable=0;points=[];" parent="8aHG0Ycmiw9dC2gy8iPI-170" vertex="1" connectable="0">
          <mxGeometry x="-0.3376" y="-3" relative="1" as="geometry">
            <mxPoint as="offset" />
          </mxGeometry>
        </mxCell>
        <mxCell id="8aHG0Ycmiw9dC2gy8iPI-172" value="" style="endArrow=classic;html=1;rounded=0;" parent="1" edge="1">
          <mxGeometry width="50" height="50" relative="1" as="geometry">
            <mxPoint x="-140" y="1520" as="sourcePoint" />
            <mxPoint x="40" y="1400" as="targetPoint" />
          </mxGeometry>
        </mxCell>
        <mxCell id="8aHG0Ycmiw9dC2gy8iPI-173" value="" style="sketch=0;pointerEvents=1;shadow=0;dashed=0;html=1;strokeColor=none;fillColor=#505050;labelPosition=center;verticalLabelPosition=bottom;verticalAlign=top;outlineConnect=0;align=center;shape=mxgraph.office.concepts.document;" parent="1" vertex="1">
          <mxGeometry x="116" y="1270" width="20" height="25" as="geometry" />
        </mxCell>
        <mxCell id="8aHG0Ycmiw9dC2gy8iPI-174" value="Server" style="text;html=1;strokeColor=none;fillColor=none;align=center;verticalAlign=middle;whiteSpace=wrap;rounded=0;" parent="1" vertex="1">
          <mxGeometry x="140" y="1120.91" width="60" height="30" as="geometry" />
        </mxCell>
        <mxCell id="8aHG0Ycmiw9dC2gy8iPI-175" value="Client" style="text;html=1;strokeColor=none;fillColor=none;align=center;verticalAlign=middle;whiteSpace=wrap;rounded=0;" parent="1" vertex="1">
          <mxGeometry x="-220" y="1123.7800000000002" width="60" height="30" as="geometry" />
        </mxCell>
        <mxCell id="8aHG0Ycmiw9dC2gy8iPI-176" value="Client_id&lt;br&gt;Client_Secret" style="text;html=1;strokeColor=none;fillColor=none;align=center;verticalAlign=middle;whiteSpace=wrap;rounded=0;" parent="1" vertex="1">
          <mxGeometry x="150" y="1265.0000000000002" width="60" height="30" as="geometry" />
        </mxCell>
        <mxCell id="8aHG0Ycmiw9dC2gy8iPI-177" value="" style="points=[[0,0.5,0],[0.24,0,0],[0.5,0.28,0],[0.995,0.475,0],[0.5,0.72,0],[0.24,1,0]];verticalLabelPosition=bottom;sketch=0;html=1;verticalAlign=top;aspect=fixed;align=center;pointerEvents=1;shape=mxgraph.cisco19.key;fillColor=#005073;strokeColor=none;" parent="1" vertex="1">
          <mxGeometry x="220" y="1380" width="22.22" height="10" as="geometry" />
        </mxCell>
        <mxCell id="8aHG0Ycmiw9dC2gy8iPI-178" value="" style="sketch=0;pointerEvents=1;shadow=0;dashed=0;html=1;strokeColor=none;fillColor=#505050;labelPosition=center;verticalLabelPosition=bottom;verticalAlign=top;outlineConnect=0;align=center;shape=mxgraph.office.concepts.document;" parent="1" vertex="1">
          <mxGeometry x="222.22000000000003" y="1410" width="20" height="25" as="geometry" />
        </mxCell>
        <mxCell id="8aHG0Ycmiw9dC2gy8iPI-179" value="Tokrn endpoint" style="text;html=1;strokeColor=none;fillColor=none;align=center;verticalAlign=middle;whiteSpace=wrap;rounded=0;" parent="1" vertex="1">
          <mxGeometry x="20" y="1315.0400000000002" width="60" height="30" as="geometry" />
        </mxCell>
        <mxCell id="8aHG0Ycmiw9dC2gy8iPI-180" value="" style="sketch=0;outlineConnect=0;fontColor=#232F3E;gradientColor=none;strokeColor=#232F3E;fillColor=#ffffff;dashed=0;verticalLabelPosition=bottom;verticalAlign=top;align=center;html=1;fontSize=12;fontStyle=0;aspect=fixed;shape=mxgraph.aws4.resourceIcon;resIcon=mxgraph.aws4.generic_database;" parent="1" vertex="1">
          <mxGeometry x="220" y="1450" width="20" height="20" as="geometry" />
        </mxCell>
        <mxCell id="8aHG0Ycmiw9dC2gy8iPI-181" value="" style="shadow=0;dashed=0;html=1;strokeColor=none;fillColor=#4495D1;labelPosition=center;verticalLabelPosition=bottom;verticalAlign=top;align=center;outlineConnect=0;shape=mxgraph.veeam.database_server;" parent="1" vertex="1">
          <mxGeometry x="130" y="1158" width="76" height="72" as="geometry" />
        </mxCell>
        <mxCell id="8aHG0Ycmiw9dC2gy8iPI-182" value="" style="shadow=0;dashed=0;html=1;strokeColor=none;fillColor=#4495D1;labelPosition=center;verticalLabelPosition=bottom;verticalAlign=top;align=center;outlineConnect=0;shape=mxgraph.veeam.one_client;" parent="1" vertex="1">
          <mxGeometry x="-240" y="1162" width="90.8" height="61.6" as="geometry" />
        </mxCell>
        <mxCell id="8aHG0Ycmiw9dC2gy8iPI-183" value="Resourse Owner" style="outlineConnect=0;dashed=0;verticalLabelPosition=bottom;verticalAlign=top;align=center;html=1;shape=mxgraph.aws3.user;fillColor=#D2D3D3;gradientColor=none;" parent="1" vertex="1">
          <mxGeometry x="-210" y="1500" width="45" height="63" as="geometry" />
        </mxCell>
        <mxCell id="8aHG0Ycmiw9dC2gy8iPI-184" value="" style="endArrow=classic;html=1;rounded=0;" parent="1" edge="1">
          <mxGeometry width="50" height="50" relative="1" as="geometry">
            <mxPoint x="-180" y="1460" as="sourcePoint" />
            <mxPoint x="-180" y="1230" as="targetPoint" />
          </mxGeometry>
        </mxCell>
        <mxCell id="8aHG0Ycmiw9dC2gy8iPI-185" value="4" style="edgeLabel;html=1;align=center;verticalAlign=middle;resizable=0;points=[];" parent="8aHG0Ycmiw9dC2gy8iPI-184" vertex="1" connectable="0">
          <mxGeometry x="-0.0206" y="-3" relative="1" as="geometry">
            <mxPoint as="offset" />
          </mxGeometry>
        </mxCell>
        <mxCell id="8aHG0Ycmiw9dC2gy8iPI-186" value="" style="endArrow=classic;html=1;rounded=0;" parent="1" edge="1">
          <mxGeometry width="50" height="50" relative="1" as="geometry">
            <mxPoint x="110" y="1200" as="sourcePoint" />
            <mxPoint x="-120" y="1200" as="targetPoint" />
          </mxGeometry>
        </mxCell>
        <mxCell id="8aHG0Ycmiw9dC2gy8iPI-187" value="8" style="edgeLabel;html=1;align=center;verticalAlign=middle;resizable=0;points=[];" parent="8aHG0Ycmiw9dC2gy8iPI-186" vertex="1" connectable="0">
          <mxGeometry x="-0.0238" y="-3" relative="1" as="geometry">
            <mxPoint as="offset" />
          </mxGeometry>
        </mxCell>
        <mxCell id="8aHG0Ycmiw9dC2gy8iPI-188" value="" style="endArrow=classic;html=1;rounded=0;" parent="1" source="8aHG0Ycmiw9dC2gy8iPI-166" edge="1">
          <mxGeometry width="50" height="50" relative="1" as="geometry">
            <mxPoint x="-170" y="1470" as="sourcePoint" />
            <mxPoint x="-160" y="1240" as="targetPoint" />
            <Array as="points">
              <mxPoint x="-160" y="1375" />
            </Array>
          </mxGeometry>
        </mxCell>
        <mxCell id="8aHG0Ycmiw9dC2gy8iPI-189" value="6" style="edgeLabel;html=1;align=center;verticalAlign=middle;resizable=0;points=[];" parent="8aHG0Ycmiw9dC2gy8iPI-188" vertex="1" connectable="0">
          <mxGeometry x="-0.4425" y="3" relative="1" as="geometry">
            <mxPoint as="offset" />
          </mxGeometry>
        </mxCell>
        <mxCell id="8aHG0Ycmiw9dC2gy8iPI-190" value="" style="endArrow=classic;html=1;rounded=0;" parent="1" edge="1">
          <mxGeometry width="50" height="50" relative="1" as="geometry">
            <mxPoint x="-130" y="1540" as="sourcePoint" />
            <mxPoint x="60" y="1410" as="targetPoint" />
            <Array as="points">
              <mxPoint x="60" y="1540" />
            </Array>
          </mxGeometry>
        </mxCell>
        <mxCell id="8aHG0Ycmiw9dC2gy8iPI-191" value="3" style="edgeLabel;html=1;align=center;verticalAlign=middle;resizable=0;points=[];" parent="8aHG0Ycmiw9dC2gy8iPI-190" vertex="1" connectable="0">
          <mxGeometry x="0.4243" y="3" relative="1" as="geometry">
            <mxPoint y="-1" as="offset" />
          </mxGeometry>
        </mxCell>
        <mxCell id="8aHG0Ycmiw9dC2gy8iPI-192" value="" style="endArrow=classic;html=1;rounded=0;" parent="1" edge="1">
          <mxGeometry width="50" height="50" relative="1" as="geometry">
            <mxPoint x="39.999999999999545" y="1399.9974647887325" as="sourcePoint" />
            <mxPoint x="-140" y="1520" as="targetPoint" />
          </mxGeometry>
        </mxCell>
        <mxCell id="8aHG0Ycmiw9dC2gy8iPI-193" value="2" style="edgeLabel;html=1;align=center;verticalAlign=middle;resizable=0;points=[];" parent="8aHG0Ycmiw9dC2gy8iPI-192" vertex="1" connectable="0">
          <mxGeometry x="-0.4266" y="-2" relative="1" as="geometry">
            <mxPoint as="offset" />
          </mxGeometry>
        </mxCell>
        <mxCell id="8aHG0Ycmiw9dC2gy8iPI-194" value="" style="endArrow=classic;html=1;rounded=0;" parent="1" edge="1">
          <mxGeometry width="50" height="50" relative="1" as="geometry">
            <mxPoint x="60" y="1540" as="sourcePoint" />
            <mxPoint x="-130" y="1540" as="targetPoint" />
          </mxGeometry>
        </mxCell>
        <mxCell id="8aHG0Ycmiw9dC2gy8iPI-195" value="" style="sketch=0;pointerEvents=1;shadow=0;dashed=0;html=1;strokeColor=none;fillColor=#505050;labelPosition=center;verticalLabelPosition=bottom;verticalAlign=top;outlineConnect=0;align=center;shape=mxgraph.office.concepts.document;" parent="1" vertex="1">
          <mxGeometry x="83" y="1488.68" width="20" height="25" as="geometry" />
        </mxCell>
        <mxCell id="8aHG0Ycmiw9dC2gy8iPI-196" value="" style="points=[[0,0.5,0],[0.24,0,0],[0.5,0.28,0],[0.995,0.475,0],[0.5,0.72,0],[0.24,1,0]];verticalLabelPosition=bottom;sketch=0;html=1;verticalAlign=top;aspect=fixed;align=center;pointerEvents=1;shape=mxgraph.cisco19.key;fillColor=#005073;strokeColor=none;" parent="1" vertex="1">
          <mxGeometry x="-20" y="1153.78" width="22.22" height="10" as="geometry" />
        </mxCell>
        <mxCell id="8aHG0Ycmiw9dC2gy8iPI-197" value="" style="points=[[0,0.5,0],[0.24,0,0],[0.5,0.28,0],[0.995,0.475,0],[0.5,0.72,0],[0.24,1,0]];verticalLabelPosition=bottom;sketch=0;html=1;verticalAlign=top;aspect=fixed;align=center;pointerEvents=1;shape=mxgraph.cisco19.key;fillColor=#005073;strokeColor=none;" parent="1" vertex="1">
          <mxGeometry x="-100" y="1350" width="22.22" height="10" as="geometry" />
        </mxCell>
        <mxCell id="8aHG0Ycmiw9dC2gy8iPI-198" value="Authorization Endpoint" style="text;html=1;strokeColor=none;fillColor=none;align=center;verticalAlign=middle;whiteSpace=wrap;rounded=0;" parent="1" vertex="1">
          <mxGeometry x="80" y="1410.0000000000002" width="60" height="30" as="geometry" />
        </mxCell>
        <mxCell id="8aHG0Ycmiw9dC2gy8iPI-199" value="Autherizarion server" style="text;html=1;strokeColor=none;fillColor=none;align=center;verticalAlign=middle;whiteSpace=wrap;rounded=0;" parent="1" vertex="1">
          <mxGeometry x="110" y="1340.0000000000002" width="60" height="30" as="geometry" />
        </mxCell>
        <mxCell id="8aHG0Ycmiw9dC2gy8iPI-200" value="Authorization code" style="text;html=1;strokeColor=none;fillColor=none;align=center;verticalAlign=middle;whiteSpace=wrap;rounded=0;" parent="1" vertex="1">
          <mxGeometry x="250" y="1410" width="110" height="30" as="geometry" />
        </mxCell>
        <mxCell id="8aHG0Ycmiw9dC2gy8iPI-201" value="Token" style="text;html=1;strokeColor=none;fillColor=none;align=center;verticalAlign=middle;whiteSpace=wrap;rounded=0;" parent="1" vertex="1">
          <mxGeometry x="242.22000000000003" y="1370" width="60" height="30" as="geometry" />
        </mxCell>
        <mxCell id="8aHG0Ycmiw9dC2gy8iPI-202" value="" style="sketch=0;outlineConnect=0;fontColor=#232F3E;gradientColor=none;strokeColor=#232F3E;fillColor=#ffffff;dashed=0;verticalLabelPosition=bottom;verticalAlign=top;align=center;html=1;fontSize=12;fontStyle=0;aspect=fixed;shape=mxgraph.aws4.resourceIcon;resIcon=mxgraph.aws4.generic_database;" parent="1" vertex="1">
          <mxGeometry x="40" y="1189.13" width="25" height="25" as="geometry" />
        </mxCell>
        <mxCell id="8aHG0Ycmiw9dC2gy8iPI-203" value="Proteted resourcce" style="text;html=1;strokeColor=none;fillColor=none;align=center;verticalAlign=middle;whiteSpace=wrap;rounded=0;" parent="1" vertex="1">
          <mxGeometry x="255" y="1445" width="105" height="30" as="geometry" />
        </mxCell>
        <mxCell id="8aHG0Ycmiw9dC2gy8iPI-204" value="OAuth2 flow" style="text;html=1;strokeColor=none;fillColor=none;align=center;verticalAlign=middle;whiteSpace=wrap;rounded=0;" parent="1" vertex="1">
          <mxGeometry x="-50" y="1100" width="112.22" height="30" as="geometry" />
        </mxCell>
        <mxCell id="8aHG0Ycmiw9dC2gy8iPI-211" style="edgeStyle=orthogonalEdgeStyle;rounded=1;hachureGap=4;orthogonalLoop=1;jettySize=auto;html=1;exitX=0.25;exitY=0;exitDx=0;exitDy=0;fontFamily=Architects Daughter;fontSource=https%3A%2F%2Ffonts.googleapis.com%2Fcss%3Ffamily%3DArchitects%2BDaughter;fontSize=16;startArrow=classic;startFill=1;fillColor=#fad7ac;strokeColor=#b46504;shape=flexArrow;startSize=5;entryX=0.309;entryY=1.015;entryDx=0;entryDy=0;entryPerimeter=0;" parent="1" target="8aHG0Ycmiw9dC2gy8iPI-109" edge="1">
          <mxGeometry relative="1" as="geometry">
            <mxPoint x="793" y="464.5" as="targetPoint" />
            <mxPoint x="826.5000000000009" y="965.5100000000002" as="sourcePoint" />
          </mxGeometry>
        </mxCell>
        <mxCell id="8aHG0Ycmiw9dC2gy8iPI-212" value="Process" style="edgeLabel;html=1;align=center;verticalAlign=middle;resizable=0;points=[];fontSize=20;fontFamily=Architects Daughter;rotation=-89;rounded=1;" parent="8aHG0Ycmiw9dC2gy8iPI-211" connectable="0" vertex="1">
          <mxGeometry x="0.2448" y="5" relative="1" as="geometry">
            <mxPoint x="-15" y="-43" as="offset" />
          </mxGeometry>
        </mxCell>
        <mxCell id="8aHG0Ycmiw9dC2gy8iPI-213" value="Response" style="edgeLabel;html=1;align=center;verticalAlign=middle;resizable=0;points=[];fontSize=20;fontFamily=Architects Daughter;rotation=90;rounded=1;" parent="8aHG0Ycmiw9dC2gy8iPI-211" connectable="0" vertex="1">
          <mxGeometry x="-0.516" y="4" relative="1" as="geometry">
            <mxPoint x="29" y="1" as="offset" />
          </mxGeometry>
        </mxCell>
        <mxCell id="8aHG0Ycmiw9dC2gy8iPI-214" value="Text" style="edgeLabel;html=1;align=center;verticalAlign=middle;resizable=0;points=[];" parent="8aHG0Ycmiw9dC2gy8iPI-211" vertex="1" connectable="0">
          <mxGeometry x="-0.4003" y="2" relative="1" as="geometry">
            <mxPoint y="-1" as="offset" />
          </mxGeometry>
        </mxCell>
        <mxCell id="8aHG0Ycmiw9dC2gy8iPI-216" value="&lt;font style=&quot;font-size: 18px;&quot;&gt;&lt;b&gt;SRS1&lt;/b&gt;&lt;/font&gt;" style="rounded=1;whiteSpace=wrap;html=1;fillColor=#f9f7ed;strokeColor=#36393d;" parent="1" vertex="1">
          <mxGeometry x="600" y="1030" width="200" height="102" as="geometry" />
        </mxCell>
        <mxCell id="8aHG0Ycmiw9dC2gy8iPI-217" value="&lt;font style=&quot;font-size: 18px;&quot;&gt;&lt;b&gt;SRS2&lt;/b&gt;&lt;/font&gt;" style="rounded=1;whiteSpace=wrap;html=1;fillColor=#f9f7ed;strokeColor=#36393d;" parent="1" vertex="1">
          <mxGeometry x="846" y="1030" width="200" height="102" as="geometry" />
        </mxCell>
        <mxCell id="8aHG0Ycmiw9dC2gy8iPI-218" value="&lt;font style=&quot;font-size: 18px;&quot;&gt;&lt;b&gt;SRS3&lt;/b&gt;&lt;/font&gt;" style="rounded=1;whiteSpace=wrap;html=1;fillColor=#f9f7ed;strokeColor=#36393d;" parent="1" vertex="1">
          <mxGeometry x="1075" y="1030" width="200" height="102" as="geometry" />
        </mxCell>
        <mxCell id="8aHG0Ycmiw9dC2gy8iPI-219" value="&lt;font style=&quot;font-size: 18px;&quot;&gt;&lt;b&gt;SRS4&lt;/b&gt;&lt;/font&gt;" style="rounded=1;whiteSpace=wrap;html=1;fillColor=#f9f7ed;strokeColor=#36393d;" parent="1" vertex="1">
          <mxGeometry x="1310" y="1030" width="200" height="102" as="geometry" />
        </mxCell>
        <mxCell id="8aHG0Ycmiw9dC2gy8iPI-220" value="Text" style="text;html=1;align=center;verticalAlign=middle;resizable=0;points=[];autosize=1;strokeColor=none;fillColor=none;" parent="1" vertex="1">
          <mxGeometry x="715" y="1708" width="50" height="30" as="geometry" />
        </mxCell>
        <mxCell id="rBt9rOygKAjZPzpCTS1T-2" value="&lt;font style=&quot;font-size: 18px;&quot;&gt;&lt;b&gt;SRS5&lt;/b&gt;&lt;/font&gt;" style="rounded=1;whiteSpace=wrap;html=1;fillColor=#f9f7ed;strokeColor=#36393d;" vertex="1" parent="1">
          <mxGeometry x="1075" y="1158" width="420" height="102" as="geometry" />
        </mxCell>
        <mxCell id="rBt9rOygKAjZPzpCTS1T-3" value="&lt;font style=&quot;font-size: 18px;&quot;&gt;&lt;b&gt;SRS4&lt;/b&gt;&lt;/font&gt;" style="rounded=1;whiteSpace=wrap;html=1;fillColor=#f9f7ed;strokeColor=#36393d;" vertex="1" parent="1">
          <mxGeometry x="600" y="1163.78" width="200" height="102" as="geometry" />
        </mxCell>
        <mxCell id="rBt9rOygKAjZPzpCTS1T-4" value="&lt;font style=&quot;font-size: 18px;&quot;&gt;&lt;b&gt;SRS6&lt;/b&gt;&lt;/font&gt;" style="rounded=1;whiteSpace=wrap;html=1;fillColor=#f9f7ed;strokeColor=#36393d;" vertex="1" parent="1">
          <mxGeometry x="846" y="1163.7800000000002" width="200" height="102" as="geometry" />
        </mxCell>
        <mxCell id="rBt9rOygKAjZPzpCTS1T-5" style="edgeStyle=orthogonalEdgeStyle;rounded=1;orthogonalLoop=1;jettySize=auto;html=1;entryX=0.079;entryY=-0.008;entryDx=0;entryDy=0;entryPerimeter=0;curved=0;" edge="1" parent="1" source="8aHG0Ycmiw9dC2gy8iPI-10" target="rBt9rOygKAjZPzpCTS1T-1">
          <mxGeometry relative="1" as="geometry" />
        </mxCell>
      </root>
    </mxGraphModel>
  </diagram>
</mxfile>
